<mxfile host="Electron" agent="Mozilla/5.0 (Windows NT 10.0; Win64; x64) AppleWebKit/537.36 (KHTML, like Gecko) draw.io/24.7.17 Chrome/128.0.6613.36 Electron/32.0.1 Safari/537.36" version="24.7.17" pages="21">
  <diagram name="ERD-1" id="eXDZq0nMSX7AYcZeoudn">
    <mxGraphModel dx="1434" dy="844" grid="1" gridSize="10" guides="1" tooltips="1" connect="1" arrows="1" fold="1" page="1" pageScale="1" pageWidth="1169" pageHeight="827" math="0" shadow="0">
      <root>
        <mxCell id="8Xbo-KBunyf081U47HyO-0" />
        <mxCell id="8Xbo-KBunyf081U47HyO-1" parent="8Xbo-KBunyf081U47HyO-0" />
        <mxCell id="8Xbo-KBunyf081U47HyO-2" style="rounded=0;orthogonalLoop=1;jettySize=auto;html=1;exitX=1;exitY=0.5;exitDx=0;exitDy=0;entryX=0;entryY=0.5;entryDx=0;entryDy=0;endArrow=none;endFill=0;" parent="8Xbo-KBunyf081U47HyO-1" source="8Xbo-KBunyf081U47HyO-3" target="8Xbo-KBunyf081U47HyO-6" edge="1">
          <mxGeometry relative="1" as="geometry" />
        </mxCell>
        <mxCell id="8Xbo-KBunyf081U47HyO-3" value="Degree" style="rounded=0;whiteSpace=wrap;html=1;" parent="8Xbo-KBunyf081U47HyO-1" vertex="1">
          <mxGeometry x="320" y="250" width="100" height="60" as="geometry" />
        </mxCell>
        <mxCell id="8Xbo-KBunyf081U47HyO-4" style="edgeStyle=none;rounded=0;orthogonalLoop=1;jettySize=auto;html=1;exitX=0;exitY=0.25;exitDx=0;exitDy=0;endArrow=none;endFill=0;" parent="8Xbo-KBunyf081U47HyO-1" source="8Xbo-KBunyf081U47HyO-6" edge="1">
          <mxGeometry relative="1" as="geometry">
            <mxPoint x="520.0000000000001" y="280" as="targetPoint" />
          </mxGeometry>
        </mxCell>
        <mxCell id="8Xbo-KBunyf081U47HyO-5" style="edgeStyle=none;rounded=0;orthogonalLoop=1;jettySize=auto;html=1;exitX=0;exitY=0.75;exitDx=0;exitDy=0;endArrow=none;endFill=0;" parent="8Xbo-KBunyf081U47HyO-1" source="8Xbo-KBunyf081U47HyO-6" edge="1">
          <mxGeometry relative="1" as="geometry">
            <mxPoint x="520.0000000000001" y="280" as="targetPoint" />
          </mxGeometry>
        </mxCell>
        <mxCell id="8Xbo-KBunyf081U47HyO-6" value="Student" style="rounded=0;whiteSpace=wrap;html=1;" parent="8Xbo-KBunyf081U47HyO-1" vertex="1">
          <mxGeometry x="540" y="250" width="100" height="60" as="geometry" />
        </mxCell>
        <mxCell id="8Xbo-KBunyf081U47HyO-16" value="is studied by" style="text;html=1;strokeColor=none;fillColor=none;align=center;verticalAlign=middle;whiteSpace=wrap;rounded=0;" parent="8Xbo-KBunyf081U47HyO-1" vertex="1">
          <mxGeometry x="440" y="240" width="80" height="30" as="geometry" />
        </mxCell>
      </root>
    </mxGraphModel>
  </diagram>
  <diagram id="y1_U-TG-ghnwNhBbqdFD" name="ERD-2">
    <mxGraphModel dx="782" dy="539" grid="1" gridSize="10" guides="1" tooltips="1" connect="1" arrows="1" fold="1" page="1" pageScale="1" pageWidth="1169" pageHeight="827" math="0" shadow="0">
      <root>
        <mxCell id="0" />
        <mxCell id="1" parent="0" />
        <mxCell id="kbh58DXuSvxwwZ8EbidC-6" style="rounded=0;orthogonalLoop=1;jettySize=auto;html=1;exitX=1;exitY=0.5;exitDx=0;exitDy=0;entryX=0;entryY=0.5;entryDx=0;entryDy=0;endArrow=none;endFill=0;" parent="1" source="kbh58DXuSvxwwZ8EbidC-7" target="kbh58DXuSvxwwZ8EbidC-10" edge="1">
          <mxGeometry relative="1" as="geometry" />
        </mxCell>
        <mxCell id="6pJhpSVMhVg2KO_6NP68-2" style="edgeStyle=none;rounded=0;orthogonalLoop=1;jettySize=auto;html=1;exitX=1;exitY=0.25;exitDx=0;exitDy=0;endArrow=none;endFill=0;" parent="1" source="kbh58DXuSvxwwZ8EbidC-7" edge="1">
          <mxGeometry relative="1" as="geometry">
            <mxPoint x="380" y="400" as="targetPoint" />
          </mxGeometry>
        </mxCell>
        <mxCell id="6pJhpSVMhVg2KO_6NP68-3" style="edgeStyle=none;rounded=0;orthogonalLoop=1;jettySize=auto;html=1;exitX=1;exitY=0.75;exitDx=0;exitDy=0;endArrow=none;endFill=0;" parent="1" source="kbh58DXuSvxwwZ8EbidC-7" edge="1">
          <mxGeometry relative="1" as="geometry">
            <mxPoint x="380" y="400" as="targetPoint" />
          </mxGeometry>
        </mxCell>
        <mxCell id="kbh58DXuSvxwwZ8EbidC-7" value="Patient" style="rounded=0;whiteSpace=wrap;html=1;" parent="1" vertex="1">
          <mxGeometry x="260" y="370" width="100" height="60" as="geometry" />
        </mxCell>
        <mxCell id="6pJhpSVMhVg2KO_6NP68-1" style="edgeStyle=none;rounded=0;orthogonalLoop=1;jettySize=auto;html=1;exitX=1;exitY=0.5;exitDx=0;exitDy=0;entryX=0;entryY=0.5;entryDx=0;entryDy=0;endArrow=none;endFill=0;" parent="1" source="kbh58DXuSvxwwZ8EbidC-10" target="kbh58DXuSvxwwZ8EbidC-11" edge="1">
          <mxGeometry relative="1" as="geometry" />
        </mxCell>
        <mxCell id="6pJhpSVMhVg2KO_6NP68-4" style="edgeStyle=none;rounded=0;orthogonalLoop=1;jettySize=auto;html=1;exitX=1;exitY=0.25;exitDx=0;exitDy=0;endArrow=none;endFill=0;" parent="1" source="kbh58DXuSvxwwZ8EbidC-10" edge="1">
          <mxGeometry relative="1" as="geometry">
            <mxPoint x="600" y="400" as="targetPoint" />
          </mxGeometry>
        </mxCell>
        <mxCell id="6pJhpSVMhVg2KO_6NP68-5" style="edgeStyle=none;rounded=0;orthogonalLoop=1;jettySize=auto;html=1;exitX=1;exitY=0.75;exitDx=0;exitDy=0;endArrow=none;endFill=0;" parent="1" source="kbh58DXuSvxwwZ8EbidC-10" edge="1">
          <mxGeometry relative="1" as="geometry">
            <mxPoint x="600" y="400" as="targetPoint" />
          </mxGeometry>
        </mxCell>
        <mxCell id="kbh58DXuSvxwwZ8EbidC-10" value="Consultant" style="rounded=0;whiteSpace=wrap;html=1;" parent="1" vertex="1">
          <mxGeometry x="480" y="370" width="100" height="60" as="geometry" />
        </mxCell>
        <mxCell id="kbh58DXuSvxwwZ8EbidC-11" value="MedicalTopic" style="rounded=0;whiteSpace=wrap;html=1;" parent="1" vertex="1">
          <mxGeometry x="700" y="370" width="100" height="60" as="geometry" />
        </mxCell>
        <mxCell id="6pJhpSVMhVg2KO_6NP68-7" value="treated by" style="text;html=1;strokeColor=none;fillColor=none;align=center;verticalAlign=middle;whiteSpace=wrap;rounded=0;" parent="1" vertex="1">
          <mxGeometry x="380" y="360" width="80" height="30" as="geometry" />
        </mxCell>
        <mxCell id="6pJhpSVMhVg2KO_6NP68-8" value="specialises in" style="text;html=1;strokeColor=none;fillColor=none;align=center;verticalAlign=middle;whiteSpace=wrap;rounded=0;" parent="1" vertex="1">
          <mxGeometry x="600" y="360" width="80" height="30" as="geometry" />
        </mxCell>
      </root>
    </mxGraphModel>
  </diagram>
  <diagram name="ERD-3" id="bAtRWyA6ACugTXY-I-IF">
    <mxGraphModel dx="782" dy="539" grid="1" gridSize="10" guides="1" tooltips="1" connect="1" arrows="1" fold="1" page="1" pageScale="1" pageWidth="1169" pageHeight="827" math="0" shadow="0">
      <root>
        <mxCell id="cVH3KG4jwrIpP4NOgMjc-0" />
        <mxCell id="cVH3KG4jwrIpP4NOgMjc-1" parent="cVH3KG4jwrIpP4NOgMjc-0" />
        <mxCell id="cVH3KG4jwrIpP4NOgMjc-2" style="rounded=0;orthogonalLoop=1;jettySize=auto;html=1;exitX=1;exitY=0.5;exitDx=0;exitDy=0;entryX=0;entryY=0.5;entryDx=0;entryDy=0;endArrow=none;endFill=0;" edge="1" parent="cVH3KG4jwrIpP4NOgMjc-1" source="cVH3KG4jwrIpP4NOgMjc-5" target="cVH3KG4jwrIpP4NOgMjc-9">
          <mxGeometry relative="1" as="geometry" />
        </mxCell>
        <mxCell id="cVH3KG4jwrIpP4NOgMjc-3" style="edgeStyle=none;rounded=0;orthogonalLoop=1;jettySize=auto;html=1;exitX=1;exitY=0.25;exitDx=0;exitDy=0;endArrow=none;endFill=0;" edge="1" parent="cVH3KG4jwrIpP4NOgMjc-1" source="cVH3KG4jwrIpP4NOgMjc-5">
          <mxGeometry relative="1" as="geometry">
            <mxPoint x="300" y="400" as="targetPoint" />
          </mxGeometry>
        </mxCell>
        <mxCell id="cVH3KG4jwrIpP4NOgMjc-4" style="edgeStyle=none;rounded=0;orthogonalLoop=1;jettySize=auto;html=1;exitX=1;exitY=0.75;exitDx=0;exitDy=0;endArrow=none;endFill=0;" edge="1" parent="cVH3KG4jwrIpP4NOgMjc-1" source="cVH3KG4jwrIpP4NOgMjc-5">
          <mxGeometry relative="1" as="geometry">
            <mxPoint x="300" y="400" as="targetPoint" />
          </mxGeometry>
        </mxCell>
        <mxCell id="cVH3KG4jwrIpP4NOgMjc-5" value="Engineer" style="rounded=0;whiteSpace=wrap;html=1;" vertex="1" parent="cVH3KG4jwrIpP4NOgMjc-1">
          <mxGeometry x="180" y="370" width="100" height="60" as="geometry" />
        </mxCell>
        <mxCell id="cVH3KG4jwrIpP4NOgMjc-6" style="edgeStyle=none;rounded=0;orthogonalLoop=1;jettySize=auto;html=1;exitX=1;exitY=0.5;exitDx=0;exitDy=0;entryX=0;entryY=0.5;entryDx=0;entryDy=0;endArrow=none;endFill=0;" edge="1" parent="cVH3KG4jwrIpP4NOgMjc-1" source="cVH3KG4jwrIpP4NOgMjc-9" target="cVH3KG4jwrIpP4NOgMjc-10">
          <mxGeometry relative="1" as="geometry" />
        </mxCell>
        <mxCell id="cVH3KG4jwrIpP4NOgMjc-7" style="edgeStyle=none;rounded=0;orthogonalLoop=1;jettySize=auto;html=1;exitX=1;exitY=0.25;exitDx=0;exitDy=0;endArrow=none;endFill=0;" edge="1" parent="cVH3KG4jwrIpP4NOgMjc-1" source="cVH3KG4jwrIpP4NOgMjc-9">
          <mxGeometry relative="1" as="geometry">
            <mxPoint x="520" y="400" as="targetPoint" />
          </mxGeometry>
        </mxCell>
        <mxCell id="cVH3KG4jwrIpP4NOgMjc-8" style="edgeStyle=none;rounded=0;orthogonalLoop=1;jettySize=auto;html=1;exitX=1;exitY=0.75;exitDx=0;exitDy=0;endArrow=none;endFill=0;" edge="1" parent="cVH3KG4jwrIpP4NOgMjc-1" source="cVH3KG4jwrIpP4NOgMjc-9">
          <mxGeometry relative="1" as="geometry">
            <mxPoint x="520" y="400" as="targetPoint" />
          </mxGeometry>
        </mxCell>
        <mxCell id="cVH3KG4jwrIpP4NOgMjc-9" value="Project" style="rounded=0;whiteSpace=wrap;html=1;" vertex="1" parent="cVH3KG4jwrIpP4NOgMjc-1">
          <mxGeometry x="400" y="370" width="100" height="60" as="geometry" />
        </mxCell>
        <mxCell id="cVH3KG4jwrIpP4NOgMjc-10" value="Manager" style="rounded=0;whiteSpace=wrap;html=1;" vertex="1" parent="cVH3KG4jwrIpP4NOgMjc-1">
          <mxGeometry x="620" y="370" width="100" height="60" as="geometry" />
        </mxCell>
        <mxCell id="cVH3KG4jwrIpP4NOgMjc-11" value="works on" style="text;html=1;strokeColor=none;fillColor=none;align=center;verticalAlign=middle;whiteSpace=wrap;rounded=0;" vertex="1" parent="cVH3KG4jwrIpP4NOgMjc-1">
          <mxGeometry x="300" y="360" width="80" height="30" as="geometry" />
        </mxCell>
        <mxCell id="cVH3KG4jwrIpP4NOgMjc-12" value="managed by" style="text;html=1;strokeColor=none;fillColor=none;align=center;verticalAlign=middle;whiteSpace=wrap;rounded=0;" vertex="1" parent="cVH3KG4jwrIpP4NOgMjc-1">
          <mxGeometry x="520" y="360" width="80" height="30" as="geometry" />
        </mxCell>
      </root>
    </mxGraphModel>
  </diagram>
  <diagram name="ERD-4" id="y7-sp72iAkkJp0QZQwgY">
    <mxGraphModel dx="1434" dy="844" grid="1" gridSize="10" guides="1" tooltips="1" connect="1" arrows="1" fold="1" page="1" pageScale="1" pageWidth="1169" pageHeight="827" math="0" shadow="0">
      <root>
        <mxCell id="4-FwObxkOwJ-uUIrhqGL-0" />
        <mxCell id="4-FwObxkOwJ-uUIrhqGL-1" parent="4-FwObxkOwJ-uUIrhqGL-0" />
        <mxCell id="4-FwObxkOwJ-uUIrhqGL-2" style="rounded=0;orthogonalLoop=1;jettySize=auto;html=1;exitX=1;exitY=0.5;exitDx=0;exitDy=0;entryX=0;entryY=0.5;entryDx=0;entryDy=0;endArrow=none;endFill=0;" parent="4-FwObxkOwJ-uUIrhqGL-1" source="4-FwObxkOwJ-uUIrhqGL-5" target="4-FwObxkOwJ-uUIrhqGL-9" edge="1">
          <mxGeometry relative="1" as="geometry" />
        </mxCell>
        <mxCell id="4-FwObxkOwJ-uUIrhqGL-5" value="Student" style="rounded=0;whiteSpace=wrap;html=1;" parent="4-FwObxkOwJ-uUIrhqGL-1" vertex="1">
          <mxGeometry x="210" y="370" width="100" height="60" as="geometry" />
        </mxCell>
        <mxCell id="4-FwObxkOwJ-uUIrhqGL-6" style="edgeStyle=none;rounded=0;orthogonalLoop=1;jettySize=auto;html=1;exitX=1;exitY=0.5;exitDx=0;exitDy=0;entryX=0;entryY=0.5;entryDx=0;entryDy=0;endArrow=none;endFill=0;" parent="4-FwObxkOwJ-uUIrhqGL-1" source="4-FwObxkOwJ-uUIrhqGL-9" target="4-FwObxkOwJ-uUIrhqGL-10" edge="1">
          <mxGeometry relative="1" as="geometry" />
        </mxCell>
        <mxCell id="I7S4EZ6gO6mvP2pittvu-5" style="edgeStyle=none;shape=connector;rounded=0;orthogonalLoop=1;jettySize=auto;html=1;exitX=0;exitY=0.25;exitDx=0;exitDy=0;labelBackgroundColor=default;strokeColor=default;fontFamily=Helvetica;fontSize=11;fontColor=default;endArrow=none;endFill=0;" parent="4-FwObxkOwJ-uUIrhqGL-1" source="4-FwObxkOwJ-uUIrhqGL-9" edge="1">
          <mxGeometry relative="1" as="geometry">
            <mxPoint x="390" y="400" as="targetPoint" />
          </mxGeometry>
        </mxCell>
        <mxCell id="I7S4EZ6gO6mvP2pittvu-6" style="edgeStyle=none;shape=connector;rounded=0;orthogonalLoop=1;jettySize=auto;html=1;exitX=0;exitY=0.75;exitDx=0;exitDy=0;labelBackgroundColor=default;strokeColor=default;fontFamily=Helvetica;fontSize=11;fontColor=default;endArrow=none;endFill=0;" parent="4-FwObxkOwJ-uUIrhqGL-1" source="4-FwObxkOwJ-uUIrhqGL-9" edge="1">
          <mxGeometry relative="1" as="geometry">
            <mxPoint x="390" y="400" as="targetPoint" />
          </mxGeometry>
        </mxCell>
        <mxCell id="4-FwObxkOwJ-uUIrhqGL-9" value="Assignment" style="rounded=0;whiteSpace=wrap;html=1;" parent="4-FwObxkOwJ-uUIrhqGL-1" vertex="1">
          <mxGeometry x="410" y="370" width="100" height="60" as="geometry" />
        </mxCell>
        <mxCell id="I7S4EZ6gO6mvP2pittvu-3" style="rounded=0;orthogonalLoop=1;jettySize=auto;html=1;exitX=1;exitY=0.5;exitDx=0;exitDy=0;entryX=0;entryY=0.5;entryDx=0;entryDy=0;endArrow=none;endFill=0;" parent="4-FwObxkOwJ-uUIrhqGL-1" source="4-FwObxkOwJ-uUIrhqGL-10" target="I7S4EZ6gO6mvP2pittvu-0" edge="1">
          <mxGeometry relative="1" as="geometry" />
        </mxCell>
        <mxCell id="I7S4EZ6gO6mvP2pittvu-7" style="edgeStyle=none;shape=connector;rounded=0;orthogonalLoop=1;jettySize=auto;html=1;exitX=0;exitY=0.25;exitDx=0;exitDy=0;labelBackgroundColor=default;strokeColor=default;fontFamily=Helvetica;fontSize=11;fontColor=default;endArrow=none;endFill=0;" parent="4-FwObxkOwJ-uUIrhqGL-1" source="4-FwObxkOwJ-uUIrhqGL-10" edge="1">
          <mxGeometry relative="1" as="geometry">
            <mxPoint x="590" y="400" as="targetPoint" />
          </mxGeometry>
        </mxCell>
        <mxCell id="I7S4EZ6gO6mvP2pittvu-8" style="edgeStyle=none;shape=connector;rounded=0;orthogonalLoop=1;jettySize=auto;html=1;exitX=0;exitY=0.75;exitDx=0;exitDy=0;labelBackgroundColor=default;strokeColor=default;fontFamily=Helvetica;fontSize=11;fontColor=default;endArrow=none;endFill=0;" parent="4-FwObxkOwJ-uUIrhqGL-1" source="4-FwObxkOwJ-uUIrhqGL-10" edge="1">
          <mxGeometry relative="1" as="geometry">
            <mxPoint x="590" y="400" as="targetPoint" />
          </mxGeometry>
        </mxCell>
        <mxCell id="I7S4EZ6gO6mvP2pittvu-9" style="edgeStyle=none;shape=connector;rounded=0;orthogonalLoop=1;jettySize=auto;html=1;exitX=1;exitY=0.25;exitDx=0;exitDy=0;labelBackgroundColor=default;strokeColor=default;fontFamily=Helvetica;fontSize=11;fontColor=default;endArrow=none;endFill=0;" parent="4-FwObxkOwJ-uUIrhqGL-1" source="4-FwObxkOwJ-uUIrhqGL-10" edge="1">
          <mxGeometry relative="1" as="geometry">
            <mxPoint x="730" y="400" as="targetPoint" />
          </mxGeometry>
        </mxCell>
        <mxCell id="I7S4EZ6gO6mvP2pittvu-10" style="edgeStyle=none;shape=connector;rounded=0;orthogonalLoop=1;jettySize=auto;html=1;exitX=1;exitY=0.75;exitDx=0;exitDy=0;labelBackgroundColor=default;strokeColor=default;fontFamily=Helvetica;fontSize=11;fontColor=default;endArrow=none;endFill=0;" parent="4-FwObxkOwJ-uUIrhqGL-1" source="4-FwObxkOwJ-uUIrhqGL-10" edge="1">
          <mxGeometry relative="1" as="geometry">
            <mxPoint x="730" y="400" as="targetPoint" />
          </mxGeometry>
        </mxCell>
        <mxCell id="4-FwObxkOwJ-uUIrhqGL-10" value="Task" style="rounded=0;whiteSpace=wrap;html=1;" parent="4-FwObxkOwJ-uUIrhqGL-1" vertex="1">
          <mxGeometry x="610" y="370" width="100" height="60" as="geometry" />
        </mxCell>
        <mxCell id="4-FwObxkOwJ-uUIrhqGL-11" value="submits" style="text;html=1;strokeColor=none;fillColor=none;align=center;verticalAlign=middle;whiteSpace=wrap;rounded=0;" parent="4-FwObxkOwJ-uUIrhqGL-1" vertex="1">
          <mxGeometry x="320" y="360" width="80" height="30" as="geometry" />
        </mxCell>
        <mxCell id="4-FwObxkOwJ-uUIrhqGL-12" value="consists of" style="text;html=1;strokeColor=none;fillColor=none;align=center;verticalAlign=middle;whiteSpace=wrap;rounded=0;" parent="4-FwObxkOwJ-uUIrhqGL-1" vertex="1">
          <mxGeometry x="520" y="360" width="80" height="30" as="geometry" />
        </mxCell>
        <mxCell id="I7S4EZ6gO6mvP2pittvu-0" value="Tutor" style="rounded=0;whiteSpace=wrap;html=1;" parent="4-FwObxkOwJ-uUIrhqGL-1" vertex="1">
          <mxGeometry x="810" y="370" width="100" height="60" as="geometry" />
        </mxCell>
        <mxCell id="I7S4EZ6gO6mvP2pittvu-4" value="is marked by" style="text;html=1;strokeColor=none;fillColor=none;align=center;verticalAlign=middle;whiteSpace=wrap;rounded=0;" parent="4-FwObxkOwJ-uUIrhqGL-1" vertex="1">
          <mxGeometry x="720" y="360" width="80" height="30" as="geometry" />
        </mxCell>
      </root>
    </mxGraphModel>
  </diagram>
  <diagram name="ERD-5" id="lKtiq7gdwH7msE69GwyI">
    <mxGraphModel dx="1434" dy="844" grid="1" gridSize="10" guides="1" tooltips="1" connect="1" arrows="1" fold="1" page="1" pageScale="1" pageWidth="1169" pageHeight="827" math="0" shadow="0">
      <root>
        <mxCell id="LgDBgVseVYMv3K6JV1Vg-0" />
        <mxCell id="LgDBgVseVYMv3K6JV1Vg-1" parent="LgDBgVseVYMv3K6JV1Vg-0" />
        <mxCell id="LgDBgVseVYMv3K6JV1Vg-3" value="Pupil" style="rounded=0;whiteSpace=wrap;html=1;" parent="LgDBgVseVYMv3K6JV1Vg-1" vertex="1">
          <mxGeometry x="210" y="370" width="100" height="60" as="geometry" />
        </mxCell>
        <mxCell id="LgDBgVseVYMv3K6JV1Vg-7" value="BookCopy" style="rounded=0;whiteSpace=wrap;html=1;" parent="LgDBgVseVYMv3K6JV1Vg-1" vertex="1">
          <mxGeometry x="410" y="370" width="100" height="60" as="geometry" />
        </mxCell>
        <mxCell id="LgDBgVseVYMv3K6JV1Vg-13" value="Book" style="rounded=0;whiteSpace=wrap;html=1;" parent="LgDBgVseVYMv3K6JV1Vg-1" vertex="1">
          <mxGeometry x="610" y="370" width="100" height="60" as="geometry" />
        </mxCell>
        <mxCell id="LgDBgVseVYMv3K6JV1Vg-16" value="Author" style="rounded=0;whiteSpace=wrap;html=1;" parent="LgDBgVseVYMv3K6JV1Vg-1" vertex="1">
          <mxGeometry x="810" y="370" width="100" height="60" as="geometry" />
        </mxCell>
      </root>
    </mxGraphModel>
  </diagram>
  <diagram id="CyE06Ref_8BArqy7YOuj" name="ERD-6">
    <mxGraphModel dx="1434" dy="844" grid="1" gridSize="10" guides="1" tooltips="1" connect="1" arrows="1" fold="1" page="1" pageScale="1" pageWidth="1169" pageHeight="827" math="0" shadow="0">
      <root>
        <mxCell id="0" />
        <mxCell id="1" parent="0" />
        <mxCell id="AKJhLHjvx_NMSNhVQzuN-1" value="&lt;b&gt;Holiday&lt;/b&gt;" style="swimlane;childLayout=stackLayout;horizontal=1;startSize=30;horizontalStack=0;rounded=1;fontSize=14;fontStyle=0;strokeWidth=2;resizeParent=0;resizeLast=1;shadow=0;dashed=0;align=center;arcSize=0;whiteSpace=wrap;html=1;" parent="1" vertex="1">
          <mxGeometry x="320" y="360" width="120" height="140" as="geometry">
            <mxRectangle x="170" y="370" width="80" height="50" as="alternateBounds" />
          </mxGeometry>
        </mxCell>
        <mxCell id="AKJhLHjvx_NMSNhVQzuN-2" value="&lt;font style=&quot;font-size: 14px;&quot;&gt;&lt;u style=&quot;&quot;&gt;title&lt;/u&gt;&lt;br&gt;destination&lt;br&gt;country&lt;br&gt;dateOfDeparture&lt;br&gt;nights&lt;br&gt;hotelRef*&lt;/font&gt;" style="align=left;strokeColor=none;fillColor=none;spacingLeft=4;fontSize=12;verticalAlign=top;resizable=0;rotatable=0;part=1;html=1;" parent="AKJhLHjvx_NMSNhVQzuN-1" vertex="1">
          <mxGeometry y="30" width="120" height="110" as="geometry" />
        </mxCell>
        <mxCell id="AKJhLHjvx_NMSNhVQzuN-3" style="edgeStyle=orthogonalEdgeStyle;rounded=0;orthogonalLoop=1;jettySize=auto;html=1;exitX=0.5;exitY=1;exitDx=0;exitDy=0;" parent="AKJhLHjvx_NMSNhVQzuN-1" source="AKJhLHjvx_NMSNhVQzuN-2" target="AKJhLHjvx_NMSNhVQzuN-2" edge="1">
          <mxGeometry relative="1" as="geometry" />
        </mxCell>
        <mxCell id="AKJhLHjvx_NMSNhVQzuN-4" value="&lt;b&gt;Hotel&lt;/b&gt;" style="swimlane;childLayout=stackLayout;horizontal=1;startSize=30;horizontalStack=0;rounded=1;fontSize=14;fontStyle=0;strokeWidth=2;resizeParent=0;resizeLast=1;shadow=0;dashed=0;align=center;arcSize=1;whiteSpace=wrap;html=1;" parent="1" vertex="1">
          <mxGeometry x="600" y="360" width="120" height="140" as="geometry">
            <mxRectangle x="170" y="370" width="80" height="50" as="alternateBounds" />
          </mxGeometry>
        </mxCell>
        <mxCell id="AKJhLHjvx_NMSNhVQzuN-5" value="&lt;span style=&quot;font-size: 14px;&quot;&gt;&lt;u&gt;hotelRef&lt;/u&gt;&lt;br&gt;hotelName&lt;br&gt;city&lt;br&gt;starRating&lt;br&gt;pricePerNight&lt;br&gt;kmFromAirport&lt;br&gt;&lt;/span&gt;" style="align=left;strokeColor=none;fillColor=none;spacingLeft=4;fontSize=12;verticalAlign=top;resizable=0;rotatable=0;part=1;html=1;" parent="AKJhLHjvx_NMSNhVQzuN-4" vertex="1">
          <mxGeometry y="30" width="120" height="110" as="geometry" />
        </mxCell>
        <mxCell id="AKJhLHjvx_NMSNhVQzuN-6" style="rounded=0;orthogonalLoop=1;jettySize=auto;html=1;exitX=1;exitY=0.5;exitDx=0;exitDy=0;entryX=0;entryY=0.5;entryDx=0;entryDy=0;endArrow=none;endFill=0;" parent="1" source="AKJhLHjvx_NMSNhVQzuN-2" target="AKJhLHjvx_NMSNhVQzuN-5" edge="1">
          <mxGeometry relative="1" as="geometry" />
        </mxCell>
        <mxCell id="AKJhLHjvx_NMSNhVQzuN-7" value="" style="endArrow=none;html=1;rounded=0;exitX=1;exitY=0.367;exitDx=0;exitDy=0;exitPerimeter=0;" parent="1" source="AKJhLHjvx_NMSNhVQzuN-2" edge="1">
          <mxGeometry width="50" height="50" relative="1" as="geometry">
            <mxPoint x="440" y="410" as="sourcePoint" />
            <mxPoint x="460" y="445" as="targetPoint" />
          </mxGeometry>
        </mxCell>
        <mxCell id="AKJhLHjvx_NMSNhVQzuN-8" value="" style="endArrow=none;html=1;rounded=0;" parent="1" edge="1">
          <mxGeometry width="50" height="50" relative="1" as="geometry">
            <mxPoint x="440" y="460" as="sourcePoint" />
            <mxPoint x="460" y="445" as="targetPoint" />
          </mxGeometry>
        </mxCell>
      </root>
    </mxGraphModel>
  </diagram>
  <diagram name="ERD-7" id="aPI3dLkLBg6yWNd-ufYR">
    <mxGraphModel dx="1304" dy="767" grid="1" gridSize="10" guides="1" tooltips="1" connect="1" arrows="1" fold="1" page="1" pageScale="1" pageWidth="1169" pageHeight="827" math="0" shadow="0">
      <root>
        <mxCell id="jNQEkSIiiKwl8X6MK4O0-0" />
        <mxCell id="jNQEkSIiiKwl8X6MK4O0-1" parent="jNQEkSIiiKwl8X6MK4O0-0" />
        <mxCell id="jNQEkSIiiKwl8X6MK4O0-2" value="&lt;b&gt;OrderProduct&lt;/b&gt;" style="swimlane;childLayout=stackLayout;horizontal=1;startSize=30;horizontalStack=0;rounded=1;fontSize=14;fontStyle=0;strokeWidth=2;resizeParent=0;resizeLast=1;shadow=0;dashed=0;align=center;arcSize=0;whiteSpace=wrap;html=1;" vertex="1" parent="jNQEkSIiiKwl8X6MK4O0-1">
          <mxGeometry x="480" y="360" width="120" height="160" as="geometry">
            <mxRectangle x="170" y="370" width="80" height="50" as="alternateBounds" />
          </mxGeometry>
        </mxCell>
        <mxCell id="jNQEkSIiiKwl8X6MK4O0-3" value="&lt;font style=&quot;font-size: 14px;&quot;&gt;&lt;u style=&quot;&quot;&gt;orderNumber&lt;/u&gt;*&lt;br&gt;&lt;u&gt;productID&lt;/u&gt;*&lt;br&gt;quantity&lt;/font&gt;" style="align=left;strokeColor=none;fillColor=none;spacingLeft=4;fontSize=12;verticalAlign=top;resizable=0;rotatable=0;part=1;html=1;" vertex="1" parent="jNQEkSIiiKwl8X6MK4O0-2">
          <mxGeometry y="30" width="120" height="130" as="geometry" />
        </mxCell>
        <mxCell id="jNQEkSIiiKwl8X6MK4O0-4" style="edgeStyle=orthogonalEdgeStyle;rounded=0;orthogonalLoop=1;jettySize=auto;html=1;exitX=0.5;exitY=1;exitDx=0;exitDy=0;" edge="1" parent="jNQEkSIiiKwl8X6MK4O0-2" source="jNQEkSIiiKwl8X6MK4O0-3" target="jNQEkSIiiKwl8X6MK4O0-3">
          <mxGeometry relative="1" as="geometry" />
        </mxCell>
        <mxCell id="jNQEkSIiiKwl8X6MK4O0-5" value="&lt;b&gt;Product&lt;/b&gt;" style="swimlane;childLayout=stackLayout;horizontal=1;startSize=30;horizontalStack=0;rounded=1;fontSize=14;fontStyle=0;strokeWidth=2;resizeParent=0;resizeLast=1;shadow=0;dashed=0;align=center;arcSize=1;whiteSpace=wrap;html=1;" vertex="1" parent="jNQEkSIiiKwl8X6MK4O0-1">
          <mxGeometry x="680" y="360" width="120" height="160" as="geometry">
            <mxRectangle x="170" y="370" width="80" height="50" as="alternateBounds" />
          </mxGeometry>
        </mxCell>
        <mxCell id="jNQEkSIiiKwl8X6MK4O0-6" value="&lt;span style=&quot;font-size: 14px;&quot;&gt;&lt;u&gt;productID&lt;br&gt;&lt;/u&gt;supplierID*&lt;br&gt;name&lt;br&gt;price&lt;br&gt;description&lt;br&gt;&lt;/span&gt;" style="align=left;strokeColor=none;fillColor=none;spacingLeft=4;fontSize=12;verticalAlign=top;resizable=0;rotatable=0;part=1;html=1;" vertex="1" parent="jNQEkSIiiKwl8X6MK4O0-5">
          <mxGeometry y="30" width="120" height="130" as="geometry" />
        </mxCell>
        <mxCell id="jNQEkSIiiKwl8X6MK4O0-7" style="rounded=0;orthogonalLoop=1;jettySize=auto;html=1;exitX=1;exitY=0.5;exitDx=0;exitDy=0;entryX=0;entryY=0.5;entryDx=0;entryDy=0;endArrow=none;endFill=0;" edge="1" parent="jNQEkSIiiKwl8X6MK4O0-1">
          <mxGeometry relative="1" as="geometry">
            <mxPoint x="600" y="440" as="sourcePoint" />
            <mxPoint x="680" y="440" as="targetPoint" />
          </mxGeometry>
        </mxCell>
        <mxCell id="jNQEkSIiiKwl8X6MK4O0-9" value="" style="endArrow=none;html=1;rounded=0;" edge="1" parent="jNQEkSIiiKwl8X6MK4O0-1">
          <mxGeometry width="50" height="50" relative="1" as="geometry">
            <mxPoint x="600" y="455" as="sourcePoint" />
            <mxPoint x="620" y="440" as="targetPoint" />
          </mxGeometry>
        </mxCell>
        <mxCell id="iLJKw2i9Xa9MODN8u40m-0" value="&lt;b&gt;Supplier&lt;/b&gt;" style="swimlane;childLayout=stackLayout;horizontal=1;startSize=30;horizontalStack=0;rounded=1;fontSize=14;fontStyle=0;strokeWidth=2;resizeParent=0;resizeLast=1;shadow=0;dashed=0;align=center;arcSize=1;whiteSpace=wrap;html=1;" vertex="1" parent="jNQEkSIiiKwl8X6MK4O0-1">
          <mxGeometry x="880" y="360" width="120" height="160" as="geometry">
            <mxRectangle x="170" y="370" width="80" height="50" as="alternateBounds" />
          </mxGeometry>
        </mxCell>
        <mxCell id="iLJKw2i9Xa9MODN8u40m-1" value="&lt;span style=&quot;font-size: 14px;&quot;&gt;&lt;u&gt;supplierID&lt;br&gt;&lt;/u&gt;name&lt;br&gt;address&lt;br&gt;city&lt;br&gt;postcode&lt;br&gt;&lt;/span&gt;" style="align=left;strokeColor=none;fillColor=none;spacingLeft=4;fontSize=12;verticalAlign=top;resizable=0;rotatable=0;part=1;html=1;" vertex="1" parent="iLJKw2i9Xa9MODN8u40m-0">
          <mxGeometry y="30" width="120" height="130" as="geometry" />
        </mxCell>
        <mxCell id="iLJKw2i9Xa9MODN8u40m-2" style="rounded=0;orthogonalLoop=1;jettySize=auto;html=1;exitX=1;exitY=0.5;exitDx=0;exitDy=0;entryX=0;entryY=0.5;entryDx=0;entryDy=0;endArrow=none;endFill=0;" edge="1" parent="jNQEkSIiiKwl8X6MK4O0-1">
          <mxGeometry relative="1" as="geometry">
            <mxPoint x="800" y="440" as="sourcePoint" />
            <mxPoint x="880" y="440" as="targetPoint" />
          </mxGeometry>
        </mxCell>
        <mxCell id="iLJKw2i9Xa9MODN8u40m-3" value="" style="endArrow=none;html=1;rounded=0;exitX=1;exitY=0.367;exitDx=0;exitDy=0;exitPerimeter=0;" edge="1" parent="jNQEkSIiiKwl8X6MK4O0-1">
          <mxGeometry width="50" height="50" relative="1" as="geometry">
            <mxPoint x="800" y="425" as="sourcePoint" />
            <mxPoint x="820" y="440" as="targetPoint" />
          </mxGeometry>
        </mxCell>
        <mxCell id="iLJKw2i9Xa9MODN8u40m-4" value="" style="endArrow=none;html=1;rounded=0;" edge="1" parent="jNQEkSIiiKwl8X6MK4O0-1">
          <mxGeometry width="50" height="50" relative="1" as="geometry">
            <mxPoint x="800" y="455" as="sourcePoint" />
            <mxPoint x="820" y="440" as="targetPoint" />
          </mxGeometry>
        </mxCell>
        <mxCell id="iLJKw2i9Xa9MODN8u40m-5" value="&lt;b&gt;Customer&lt;/b&gt;" style="swimlane;childLayout=stackLayout;horizontal=1;startSize=30;horizontalStack=0;rounded=1;fontSize=14;fontStyle=0;strokeWidth=2;resizeParent=0;resizeLast=1;shadow=0;dashed=0;align=center;arcSize=0;whiteSpace=wrap;html=1;" vertex="1" parent="jNQEkSIiiKwl8X6MK4O0-1">
          <mxGeometry x="80" y="360" width="120" height="160" as="geometry">
            <mxRectangle x="170" y="370" width="80" height="50" as="alternateBounds" />
          </mxGeometry>
        </mxCell>
        <mxCell id="iLJKw2i9Xa9MODN8u40m-6" value="&lt;font style=&quot;font-size: 14px;&quot;&gt;&lt;u style=&quot;&quot;&gt;customerID&lt;br&gt;&lt;/u&gt;shopName&lt;br&gt;address&lt;br&gt;city&lt;br&gt;postcode&lt;br&gt;contactName&lt;br&gt;email&lt;/font&gt;" style="align=left;strokeColor=none;fillColor=none;spacingLeft=4;fontSize=12;verticalAlign=top;resizable=0;rotatable=0;part=1;html=1;" vertex="1" parent="iLJKw2i9Xa9MODN8u40m-5">
          <mxGeometry y="30" width="120" height="130" as="geometry" />
        </mxCell>
        <mxCell id="iLJKw2i9Xa9MODN8u40m-7" style="edgeStyle=orthogonalEdgeStyle;rounded=0;orthogonalLoop=1;jettySize=auto;html=1;exitX=0.5;exitY=1;exitDx=0;exitDy=0;" edge="1" parent="iLJKw2i9Xa9MODN8u40m-5" source="iLJKw2i9Xa9MODN8u40m-6" target="iLJKw2i9Xa9MODN8u40m-6">
          <mxGeometry relative="1" as="geometry" />
        </mxCell>
        <mxCell id="iLJKw2i9Xa9MODN8u40m-8" value="&lt;b&gt;CustomerOrder&lt;/b&gt;" style="swimlane;childLayout=stackLayout;horizontal=1;startSize=30;horizontalStack=0;rounded=1;fontSize=14;fontStyle=0;strokeWidth=2;resizeParent=0;resizeLast=1;shadow=0;dashed=0;align=center;arcSize=1;whiteSpace=wrap;html=1;" vertex="1" parent="jNQEkSIiiKwl8X6MK4O0-1">
          <mxGeometry x="280" y="360" width="120" height="160" as="geometry">
            <mxRectangle x="170" y="370" width="80" height="50" as="alternateBounds" />
          </mxGeometry>
        </mxCell>
        <mxCell id="iLJKw2i9Xa9MODN8u40m-9" value="&lt;span style=&quot;font-size: 14px;&quot;&gt;&lt;u&gt;orderNumber&lt;br&gt;&lt;/u&gt;orderDate&lt;br&gt;customerID*&lt;br&gt;&lt;/span&gt;" style="align=left;strokeColor=none;fillColor=none;spacingLeft=4;fontSize=12;verticalAlign=top;resizable=0;rotatable=0;part=1;html=1;" vertex="1" parent="iLJKw2i9Xa9MODN8u40m-8">
          <mxGeometry y="30" width="120" height="130" as="geometry" />
        </mxCell>
        <mxCell id="iLJKw2i9Xa9MODN8u40m-10" style="rounded=0;orthogonalLoop=1;jettySize=auto;html=1;exitX=1;exitY=0.5;exitDx=0;exitDy=0;entryX=0;entryY=0.5;entryDx=0;entryDy=0;endArrow=none;endFill=0;" edge="1" parent="jNQEkSIiiKwl8X6MK4O0-1">
          <mxGeometry relative="1" as="geometry">
            <mxPoint x="200" y="440" as="sourcePoint" />
            <mxPoint x="280" y="440" as="targetPoint" />
          </mxGeometry>
        </mxCell>
        <mxCell id="iLJKw2i9Xa9MODN8u40m-11" value="" style="endArrow=none;html=1;rounded=0;exitX=1;exitY=0.367;exitDx=0;exitDy=0;exitPerimeter=0;" edge="1" parent="jNQEkSIiiKwl8X6MK4O0-1">
          <mxGeometry width="50" height="50" relative="1" as="geometry">
            <mxPoint x="260" y="440" as="sourcePoint" />
            <mxPoint x="280" y="455" as="targetPoint" />
          </mxGeometry>
        </mxCell>
        <mxCell id="iLJKw2i9Xa9MODN8u40m-12" value="" style="endArrow=none;html=1;rounded=0;" edge="1" parent="jNQEkSIiiKwl8X6MK4O0-1">
          <mxGeometry width="50" height="50" relative="1" as="geometry">
            <mxPoint x="260" y="440" as="sourcePoint" />
            <mxPoint x="280" y="425" as="targetPoint" />
          </mxGeometry>
        </mxCell>
        <mxCell id="iLJKw2i9Xa9MODN8u40m-13" style="rounded=0;orthogonalLoop=1;jettySize=auto;html=1;exitX=1;exitY=0.5;exitDx=0;exitDy=0;entryX=0;entryY=0.5;entryDx=0;entryDy=0;endArrow=none;endFill=0;" edge="1" parent="jNQEkSIiiKwl8X6MK4O0-1">
          <mxGeometry relative="1" as="geometry">
            <mxPoint x="400" y="440" as="sourcePoint" />
            <mxPoint x="480" y="440" as="targetPoint" />
          </mxGeometry>
        </mxCell>
        <mxCell id="iLJKw2i9Xa9MODN8u40m-14" value="" style="endArrow=none;html=1;rounded=0;exitX=1;exitY=0.367;exitDx=0;exitDy=0;exitPerimeter=0;" edge="1" parent="jNQEkSIiiKwl8X6MK4O0-1">
          <mxGeometry width="50" height="50" relative="1" as="geometry">
            <mxPoint x="460" y="440" as="sourcePoint" />
            <mxPoint x="480" y="455" as="targetPoint" />
          </mxGeometry>
        </mxCell>
        <mxCell id="iLJKw2i9Xa9MODN8u40m-15" value="" style="endArrow=none;html=1;rounded=0;" edge="1" parent="jNQEkSIiiKwl8X6MK4O0-1">
          <mxGeometry width="50" height="50" relative="1" as="geometry">
            <mxPoint x="460" y="440" as="sourcePoint" />
            <mxPoint x="480" y="425" as="targetPoint" />
          </mxGeometry>
        </mxCell>
        <mxCell id="iLJKw2i9Xa9MODN8u40m-18" value="" style="endArrow=none;html=1;rounded=0;exitX=1;exitY=0.367;exitDx=0;exitDy=0;exitPerimeter=0;" edge="1" parent="jNQEkSIiiKwl8X6MK4O0-1">
          <mxGeometry width="50" height="50" relative="1" as="geometry">
            <mxPoint x="600" y="425" as="sourcePoint" />
            <mxPoint x="620" y="440" as="targetPoint" />
          </mxGeometry>
        </mxCell>
      </root>
    </mxGraphModel>
  </diagram>
  <diagram id="LMf8mibFv2ecB5eFwiX4" name="EO-A">
    <mxGraphModel dx="1434" dy="844" grid="1" gridSize="10" guides="1" tooltips="1" connect="1" arrows="1" fold="1" page="1" pageScale="1" pageWidth="827" pageHeight="1169" math="0" shadow="0">
      <root>
        <mxCell id="0" />
        <mxCell id="1" parent="0" />
        <mxCell id="sUgBPr_LKKH3yAcyhY5F-10" value="" style="group" connectable="0" vertex="1" parent="1">
          <mxGeometry x="160" y="280" width="80" height="120" as="geometry" />
        </mxCell>
        <mxCell id="sUgBPr_LKKH3yAcyhY5F-1" value="" style="ellipse;whiteSpace=wrap;html=1;" vertex="1" parent="sUgBPr_LKKH3yAcyhY5F-10">
          <mxGeometry width="80" height="120" as="geometry" />
        </mxCell>
        <mxCell id="sUgBPr_LKKH3yAcyhY5F-3" value="" style="ellipse;whiteSpace=wrap;html=1;aspect=fixed;fillColor=#000000;" vertex="1" parent="sUgBPr_LKKH3yAcyhY5F-10">
          <mxGeometry x="35" y="15" width="10" height="10" as="geometry" />
        </mxCell>
        <mxCell id="sUgBPr_LKKH3yAcyhY5F-4" value="" style="ellipse;whiteSpace=wrap;html=1;aspect=fixed;fillColor=#000000;" vertex="1" parent="sUgBPr_LKKH3yAcyhY5F-10">
          <mxGeometry x="35" y="35" width="10" height="10" as="geometry" />
        </mxCell>
        <mxCell id="sUgBPr_LKKH3yAcyhY5F-5" value="" style="ellipse;whiteSpace=wrap;html=1;aspect=fixed;fillColor=#000000;" vertex="1" parent="sUgBPr_LKKH3yAcyhY5F-10">
          <mxGeometry x="35" y="55" width="10" height="10" as="geometry" />
        </mxCell>
        <mxCell id="sUgBPr_LKKH3yAcyhY5F-6" value="" style="ellipse;whiteSpace=wrap;html=1;aspect=fixed;fillColor=#000000;" vertex="1" parent="sUgBPr_LKKH3yAcyhY5F-10">
          <mxGeometry x="35" y="75" width="10" height="10" as="geometry" />
        </mxCell>
        <mxCell id="sUgBPr_LKKH3yAcyhY5F-7" value="" style="ellipse;whiteSpace=wrap;html=1;aspect=fixed;fillColor=#000000;" vertex="1" parent="sUgBPr_LKKH3yAcyhY5F-10">
          <mxGeometry x="35" y="95" width="10" height="10" as="geometry" />
        </mxCell>
        <mxCell id="sUgBPr_LKKH3yAcyhY5F-11" value="" style="group" connectable="0" vertex="1" parent="1">
          <mxGeometry x="280" y="280" width="80" height="120" as="geometry" />
        </mxCell>
        <mxCell id="sUgBPr_LKKH3yAcyhY5F-12" value="" style="ellipse;whiteSpace=wrap;html=1;" vertex="1" parent="sUgBPr_LKKH3yAcyhY5F-11">
          <mxGeometry width="80" height="120" as="geometry" />
        </mxCell>
        <mxCell id="sUgBPr_LKKH3yAcyhY5F-13" value="" style="ellipse;whiteSpace=wrap;html=1;aspect=fixed;fillColor=#000000;" vertex="1" parent="sUgBPr_LKKH3yAcyhY5F-11">
          <mxGeometry x="35" y="15" width="10" height="10" as="geometry" />
        </mxCell>
        <mxCell id="sUgBPr_LKKH3yAcyhY5F-14" value="" style="ellipse;whiteSpace=wrap;html=1;aspect=fixed;fillColor=#000000;" vertex="1" parent="sUgBPr_LKKH3yAcyhY5F-11">
          <mxGeometry x="35" y="35" width="10" height="10" as="geometry" />
        </mxCell>
        <mxCell id="sUgBPr_LKKH3yAcyhY5F-15" value="" style="ellipse;whiteSpace=wrap;html=1;aspect=fixed;fillColor=#000000;" vertex="1" parent="sUgBPr_LKKH3yAcyhY5F-11">
          <mxGeometry x="35" y="55" width="10" height="10" as="geometry" />
        </mxCell>
        <mxCell id="sUgBPr_LKKH3yAcyhY5F-16" value="" style="ellipse;whiteSpace=wrap;html=1;aspect=fixed;fillColor=#000000;" vertex="1" parent="sUgBPr_LKKH3yAcyhY5F-11">
          <mxGeometry x="35" y="75" width="10" height="10" as="geometry" />
        </mxCell>
        <mxCell id="sUgBPr_LKKH3yAcyhY5F-17" value="" style="ellipse;whiteSpace=wrap;html=1;aspect=fixed;fillColor=#000000;" vertex="1" parent="sUgBPr_LKKH3yAcyhY5F-11">
          <mxGeometry x="35" y="95" width="10" height="10" as="geometry" />
        </mxCell>
        <mxCell id="sUgBPr_LKKH3yAcyhY5F-19" value="" style="endArrow=none;html=1;rounded=0;entryX=0;entryY=0.5;entryDx=0;entryDy=0;" edge="1" parent="1" source="sUgBPr_LKKH3yAcyhY5F-3" target="sUgBPr_LKKH3yAcyhY5F-13">
          <mxGeometry width="50" height="50" relative="1" as="geometry">
            <mxPoint x="300" y="350" as="sourcePoint" />
            <mxPoint x="350" y="300" as="targetPoint" />
          </mxGeometry>
        </mxCell>
        <mxCell id="sUgBPr_LKKH3yAcyhY5F-20" value="" style="endArrow=none;html=1;rounded=0;exitX=1;exitY=0.5;exitDx=0;exitDy=0;entryX=0;entryY=0.5;entryDx=0;entryDy=0;" edge="1" parent="1" source="sUgBPr_LKKH3yAcyhY5F-5" target="sUgBPr_LKKH3yAcyhY5F-14">
          <mxGeometry width="50" height="50" relative="1" as="geometry">
            <mxPoint x="300" y="350" as="sourcePoint" />
            <mxPoint x="350" y="300" as="targetPoint" />
          </mxGeometry>
        </mxCell>
        <mxCell id="sUgBPr_LKKH3yAcyhY5F-21" value="" style="endArrow=none;html=1;rounded=0;exitX=1;exitY=0.5;exitDx=0;exitDy=0;entryX=0;entryY=0.5;entryDx=0;entryDy=0;" edge="1" parent="1" source="sUgBPr_LKKH3yAcyhY5F-6" target="sUgBPr_LKKH3yAcyhY5F-17">
          <mxGeometry width="50" height="50" relative="1" as="geometry">
            <mxPoint x="215" y="390" as="sourcePoint" />
            <mxPoint x="365" y="370" as="targetPoint" />
          </mxGeometry>
        </mxCell>
      </root>
    </mxGraphModel>
  </diagram>
  <diagram id="YX9iNgT7U2YeY9GZsdib" name="EO-B">
    <mxGraphModel dx="1434" dy="844" grid="1" gridSize="10" guides="1" tooltips="1" connect="1" arrows="1" fold="1" page="1" pageScale="1" pageWidth="827" pageHeight="1169" math="0" shadow="0">
      <root>
        <mxCell id="7F2zKCJTqfHJVCl3zhDj-0" />
        <mxCell id="7F2zKCJTqfHJVCl3zhDj-1" parent="7F2zKCJTqfHJVCl3zhDj-0" />
        <mxCell id="7F2zKCJTqfHJVCl3zhDj-2" value="" style="group" connectable="0" vertex="1" parent="7F2zKCJTqfHJVCl3zhDj-1">
          <mxGeometry x="160" y="280" width="80" height="120" as="geometry" />
        </mxCell>
        <mxCell id="7F2zKCJTqfHJVCl3zhDj-3" value="" style="ellipse;whiteSpace=wrap;html=1;" vertex="1" parent="7F2zKCJTqfHJVCl3zhDj-2">
          <mxGeometry width="80" height="120" as="geometry" />
        </mxCell>
        <mxCell id="7F2zKCJTqfHJVCl3zhDj-4" value="" style="ellipse;whiteSpace=wrap;html=1;aspect=fixed;fillColor=#000000;" vertex="1" parent="7F2zKCJTqfHJVCl3zhDj-2">
          <mxGeometry x="35" y="15" width="10" height="10" as="geometry" />
        </mxCell>
        <mxCell id="7F2zKCJTqfHJVCl3zhDj-5" value="" style="ellipse;whiteSpace=wrap;html=1;aspect=fixed;fillColor=#000000;" vertex="1" parent="7F2zKCJTqfHJVCl3zhDj-2">
          <mxGeometry x="35" y="35" width="10" height="10" as="geometry" />
        </mxCell>
        <mxCell id="7F2zKCJTqfHJVCl3zhDj-6" value="" style="ellipse;whiteSpace=wrap;html=1;aspect=fixed;fillColor=#000000;" vertex="1" parent="7F2zKCJTqfHJVCl3zhDj-2">
          <mxGeometry x="35" y="55" width="10" height="10" as="geometry" />
        </mxCell>
        <mxCell id="7F2zKCJTqfHJVCl3zhDj-7" value="" style="ellipse;whiteSpace=wrap;html=1;aspect=fixed;fillColor=#000000;" vertex="1" parent="7F2zKCJTqfHJVCl3zhDj-2">
          <mxGeometry x="35" y="75" width="10" height="10" as="geometry" />
        </mxCell>
        <mxCell id="7F2zKCJTqfHJVCl3zhDj-8" value="" style="ellipse;whiteSpace=wrap;html=1;aspect=fixed;fillColor=#000000;" vertex="1" parent="7F2zKCJTqfHJVCl3zhDj-2">
          <mxGeometry x="35" y="95" width="10" height="10" as="geometry" />
        </mxCell>
        <mxCell id="7F2zKCJTqfHJVCl3zhDj-9" value="" style="group" connectable="0" vertex="1" parent="7F2zKCJTqfHJVCl3zhDj-1">
          <mxGeometry x="280" y="280" width="80" height="120" as="geometry" />
        </mxCell>
        <mxCell id="7F2zKCJTqfHJVCl3zhDj-10" value="" style="ellipse;whiteSpace=wrap;html=1;" vertex="1" parent="7F2zKCJTqfHJVCl3zhDj-9">
          <mxGeometry width="80" height="120" as="geometry" />
        </mxCell>
        <mxCell id="7F2zKCJTqfHJVCl3zhDj-11" value="" style="ellipse;whiteSpace=wrap;html=1;aspect=fixed;fillColor=#000000;" vertex="1" parent="7F2zKCJTqfHJVCl3zhDj-9">
          <mxGeometry x="35" y="15" width="10" height="10" as="geometry" />
        </mxCell>
        <mxCell id="7F2zKCJTqfHJVCl3zhDj-12" value="" style="ellipse;whiteSpace=wrap;html=1;aspect=fixed;fillColor=#000000;" vertex="1" parent="7F2zKCJTqfHJVCl3zhDj-9">
          <mxGeometry x="35" y="35" width="10" height="10" as="geometry" />
        </mxCell>
        <mxCell id="7F2zKCJTqfHJVCl3zhDj-13" value="" style="ellipse;whiteSpace=wrap;html=1;aspect=fixed;fillColor=#000000;" vertex="1" parent="7F2zKCJTqfHJVCl3zhDj-9">
          <mxGeometry x="35" y="55" width="10" height="10" as="geometry" />
        </mxCell>
        <mxCell id="7F2zKCJTqfHJVCl3zhDj-14" value="" style="ellipse;whiteSpace=wrap;html=1;aspect=fixed;fillColor=#000000;" vertex="1" parent="7F2zKCJTqfHJVCl3zhDj-9">
          <mxGeometry x="35" y="75" width="10" height="10" as="geometry" />
        </mxCell>
        <mxCell id="7F2zKCJTqfHJVCl3zhDj-15" value="" style="ellipse;whiteSpace=wrap;html=1;aspect=fixed;fillColor=#000000;" vertex="1" parent="7F2zKCJTqfHJVCl3zhDj-9">
          <mxGeometry x="35" y="95" width="10" height="10" as="geometry" />
        </mxCell>
        <mxCell id="7F2zKCJTqfHJVCl3zhDj-16" value="" style="endArrow=none;html=1;rounded=0;entryX=0;entryY=0.5;entryDx=0;entryDy=0;" edge="1" parent="7F2zKCJTqfHJVCl3zhDj-1" source="7F2zKCJTqfHJVCl3zhDj-4" target="7F2zKCJTqfHJVCl3zhDj-11">
          <mxGeometry width="50" height="50" relative="1" as="geometry">
            <mxPoint x="300" y="350" as="sourcePoint" />
            <mxPoint x="350" y="300" as="targetPoint" />
          </mxGeometry>
        </mxCell>
        <mxCell id="7F2zKCJTqfHJVCl3zhDj-17" value="" style="endArrow=none;html=1;rounded=0;exitX=1;exitY=0.5;exitDx=0;exitDy=0;entryX=0;entryY=0.5;entryDx=0;entryDy=0;" edge="1" parent="7F2zKCJTqfHJVCl3zhDj-1" source="7F2zKCJTqfHJVCl3zhDj-4" target="7F2zKCJTqfHJVCl3zhDj-12">
          <mxGeometry width="50" height="50" relative="1" as="geometry">
            <mxPoint x="300" y="350" as="sourcePoint" />
            <mxPoint x="350" y="300" as="targetPoint" />
          </mxGeometry>
        </mxCell>
        <mxCell id="7F2zKCJTqfHJVCl3zhDj-18" value="" style="endArrow=none;html=1;rounded=0;exitX=1;exitY=0.5;exitDx=0;exitDy=0;entryX=0;entryY=0.5;entryDx=0;entryDy=0;" edge="1" parent="7F2zKCJTqfHJVCl3zhDj-1" source="7F2zKCJTqfHJVCl3zhDj-7" target="7F2zKCJTqfHJVCl3zhDj-14">
          <mxGeometry width="50" height="50" relative="1" as="geometry">
            <mxPoint x="215" y="390" as="sourcePoint" />
            <mxPoint x="365" y="370" as="targetPoint" />
          </mxGeometry>
        </mxCell>
        <mxCell id="pdVDZUmh6LbtMf8d-ZqU-0" value="" style="endArrow=none;html=1;rounded=0;exitX=1;exitY=0.5;exitDx=0;exitDy=0;entryX=0;entryY=0.5;entryDx=0;entryDy=0;" edge="1" parent="7F2zKCJTqfHJVCl3zhDj-1" source="7F2zKCJTqfHJVCl3zhDj-6" target="7F2zKCJTqfHJVCl3zhDj-14">
          <mxGeometry width="50" height="50" relative="1" as="geometry">
            <mxPoint x="260" y="370" as="sourcePoint" />
            <mxPoint x="310" y="320" as="targetPoint" />
          </mxGeometry>
        </mxCell>
        <mxCell id="pdVDZUmh6LbtMf8d-ZqU-1" value="" style="endArrow=none;html=1;rounded=0;exitX=1;exitY=0.5;exitDx=0;exitDy=0;entryX=0;entryY=0.5;entryDx=0;entryDy=0;" edge="1" parent="7F2zKCJTqfHJVCl3zhDj-1" source="7F2zKCJTqfHJVCl3zhDj-8" target="7F2zKCJTqfHJVCl3zhDj-15">
          <mxGeometry width="50" height="50" relative="1" as="geometry">
            <mxPoint x="260" y="370" as="sourcePoint" />
            <mxPoint x="310" y="320" as="targetPoint" />
          </mxGeometry>
        </mxCell>
      </root>
    </mxGraphModel>
  </diagram>
  <diagram id="h299_NgfEZQT1SFWJolT" name="EO-C">
    <mxGraphModel dx="1434" dy="844" grid="1" gridSize="10" guides="1" tooltips="1" connect="1" arrows="1" fold="1" page="1" pageScale="1" pageWidth="827" pageHeight="1169" math="0" shadow="0">
      <root>
        <mxCell id="fFhwRdVrr6M_xQ-t2Iax-0" />
        <mxCell id="fFhwRdVrr6M_xQ-t2Iax-1" parent="fFhwRdVrr6M_xQ-t2Iax-0" />
        <mxCell id="fFhwRdVrr6M_xQ-t2Iax-2" value="" style="group" connectable="0" vertex="1" parent="fFhwRdVrr6M_xQ-t2Iax-1">
          <mxGeometry x="160" y="280" width="80" height="120" as="geometry" />
        </mxCell>
        <mxCell id="fFhwRdVrr6M_xQ-t2Iax-3" value="" style="ellipse;whiteSpace=wrap;html=1;" vertex="1" parent="fFhwRdVrr6M_xQ-t2Iax-2">
          <mxGeometry width="80" height="120" as="geometry" />
        </mxCell>
        <mxCell id="fFhwRdVrr6M_xQ-t2Iax-4" value="" style="ellipse;whiteSpace=wrap;html=1;aspect=fixed;fillColor=#000000;" vertex="1" parent="fFhwRdVrr6M_xQ-t2Iax-2">
          <mxGeometry x="35" y="15" width="10" height="10" as="geometry" />
        </mxCell>
        <mxCell id="fFhwRdVrr6M_xQ-t2Iax-5" value="" style="ellipse;whiteSpace=wrap;html=1;aspect=fixed;fillColor=#000000;" vertex="1" parent="fFhwRdVrr6M_xQ-t2Iax-2">
          <mxGeometry x="35" y="35" width="10" height="10" as="geometry" />
        </mxCell>
        <mxCell id="fFhwRdVrr6M_xQ-t2Iax-6" value="" style="ellipse;whiteSpace=wrap;html=1;aspect=fixed;fillColor=#000000;" vertex="1" parent="fFhwRdVrr6M_xQ-t2Iax-2">
          <mxGeometry x="35" y="55" width="10" height="10" as="geometry" />
        </mxCell>
        <mxCell id="fFhwRdVrr6M_xQ-t2Iax-7" value="" style="ellipse;whiteSpace=wrap;html=1;aspect=fixed;fillColor=#000000;" vertex="1" parent="fFhwRdVrr6M_xQ-t2Iax-2">
          <mxGeometry x="35" y="75" width="10" height="10" as="geometry" />
        </mxCell>
        <mxCell id="fFhwRdVrr6M_xQ-t2Iax-8" value="" style="ellipse;whiteSpace=wrap;html=1;aspect=fixed;fillColor=#000000;" vertex="1" parent="fFhwRdVrr6M_xQ-t2Iax-2">
          <mxGeometry x="35" y="95" width="10" height="10" as="geometry" />
        </mxCell>
        <mxCell id="fFhwRdVrr6M_xQ-t2Iax-9" value="" style="group" connectable="0" vertex="1" parent="fFhwRdVrr6M_xQ-t2Iax-1">
          <mxGeometry x="280" y="280" width="80" height="120" as="geometry" />
        </mxCell>
        <mxCell id="fFhwRdVrr6M_xQ-t2Iax-10" value="" style="ellipse;whiteSpace=wrap;html=1;" vertex="1" parent="fFhwRdVrr6M_xQ-t2Iax-9">
          <mxGeometry width="80" height="120" as="geometry" />
        </mxCell>
        <mxCell id="fFhwRdVrr6M_xQ-t2Iax-11" value="" style="ellipse;whiteSpace=wrap;html=1;aspect=fixed;fillColor=#000000;" vertex="1" parent="fFhwRdVrr6M_xQ-t2Iax-9">
          <mxGeometry x="35" y="15" width="10" height="10" as="geometry" />
        </mxCell>
        <mxCell id="fFhwRdVrr6M_xQ-t2Iax-12" value="" style="ellipse;whiteSpace=wrap;html=1;aspect=fixed;fillColor=#000000;" vertex="1" parent="fFhwRdVrr6M_xQ-t2Iax-9">
          <mxGeometry x="35" y="35" width="10" height="10" as="geometry" />
        </mxCell>
        <mxCell id="fFhwRdVrr6M_xQ-t2Iax-13" value="" style="ellipse;whiteSpace=wrap;html=1;aspect=fixed;fillColor=#000000;" vertex="1" parent="fFhwRdVrr6M_xQ-t2Iax-9">
          <mxGeometry x="35" y="55" width="10" height="10" as="geometry" />
        </mxCell>
        <mxCell id="fFhwRdVrr6M_xQ-t2Iax-14" value="" style="ellipse;whiteSpace=wrap;html=1;aspect=fixed;fillColor=#000000;" vertex="1" parent="fFhwRdVrr6M_xQ-t2Iax-9">
          <mxGeometry x="35" y="75" width="10" height="10" as="geometry" />
        </mxCell>
        <mxCell id="fFhwRdVrr6M_xQ-t2Iax-15" value="" style="ellipse;whiteSpace=wrap;html=1;aspect=fixed;fillColor=#000000;" vertex="1" parent="fFhwRdVrr6M_xQ-t2Iax-9">
          <mxGeometry x="35" y="95" width="10" height="10" as="geometry" />
        </mxCell>
        <mxCell id="fFhwRdVrr6M_xQ-t2Iax-16" value="" style="endArrow=none;html=1;rounded=0;entryX=0;entryY=0.5;entryDx=0;entryDy=0;" edge="1" parent="fFhwRdVrr6M_xQ-t2Iax-1" source="fFhwRdVrr6M_xQ-t2Iax-4" target="fFhwRdVrr6M_xQ-t2Iax-11">
          <mxGeometry width="50" height="50" relative="1" as="geometry">
            <mxPoint x="300" y="350" as="sourcePoint" />
            <mxPoint x="350" y="300" as="targetPoint" />
          </mxGeometry>
        </mxCell>
        <mxCell id="fFhwRdVrr6M_xQ-t2Iax-17" value="" style="endArrow=none;html=1;rounded=0;exitX=1;exitY=0.5;exitDx=0;exitDy=0;entryX=0;entryY=0.5;entryDx=0;entryDy=0;" edge="1" parent="fFhwRdVrr6M_xQ-t2Iax-1" source="fFhwRdVrr6M_xQ-t2Iax-5" target="fFhwRdVrr6M_xQ-t2Iax-12">
          <mxGeometry width="50" height="50" relative="1" as="geometry">
            <mxPoint x="300" y="350" as="sourcePoint" />
            <mxPoint x="350" y="300" as="targetPoint" />
          </mxGeometry>
        </mxCell>
        <mxCell id="fFhwRdVrr6M_xQ-t2Iax-18" value="" style="endArrow=none;html=1;rounded=0;exitX=1;exitY=0.5;exitDx=0;exitDy=0;entryX=0;entryY=0.5;entryDx=0;entryDy=0;" edge="1" parent="fFhwRdVrr6M_xQ-t2Iax-1" source="fFhwRdVrr6M_xQ-t2Iax-7" target="fFhwRdVrr6M_xQ-t2Iax-14">
          <mxGeometry width="50" height="50" relative="1" as="geometry">
            <mxPoint x="215" y="390" as="sourcePoint" />
            <mxPoint x="365" y="370" as="targetPoint" />
          </mxGeometry>
        </mxCell>
        <mxCell id="s8e3iDvzChLmO8lVJZJc-0" value="" style="endArrow=none;html=1;rounded=0;exitX=1;exitY=0.5;exitDx=0;exitDy=0;entryX=0;entryY=0.5;entryDx=0;entryDy=0;" edge="1" parent="fFhwRdVrr6M_xQ-t2Iax-1" source="fFhwRdVrr6M_xQ-t2Iax-5" target="fFhwRdVrr6M_xQ-t2Iax-13">
          <mxGeometry width="50" height="50" relative="1" as="geometry">
            <mxPoint x="260" y="380" as="sourcePoint" />
            <mxPoint x="310" y="330" as="targetPoint" />
          </mxGeometry>
        </mxCell>
        <mxCell id="s8e3iDvzChLmO8lVJZJc-1" value="" style="endArrow=none;html=1;rounded=0;exitX=1;exitY=0.5;exitDx=0;exitDy=0;entryX=0;entryY=0.5;entryDx=0;entryDy=0;" edge="1" parent="fFhwRdVrr6M_xQ-t2Iax-1" source="fFhwRdVrr6M_xQ-t2Iax-6" target="fFhwRdVrr6M_xQ-t2Iax-11">
          <mxGeometry width="50" height="50" relative="1" as="geometry">
            <mxPoint x="260" y="380" as="sourcePoint" />
            <mxPoint x="310" y="330" as="targetPoint" />
          </mxGeometry>
        </mxCell>
        <mxCell id="s8e3iDvzChLmO8lVJZJc-2" value="" style="endArrow=none;html=1;rounded=0;exitX=1;exitY=0.5;exitDx=0;exitDy=0;entryX=-0.119;entryY=0.473;entryDx=0;entryDy=0;entryPerimeter=0;" edge="1" parent="fFhwRdVrr6M_xQ-t2Iax-1" source="fFhwRdVrr6M_xQ-t2Iax-6" target="fFhwRdVrr6M_xQ-t2Iax-14">
          <mxGeometry width="50" height="50" relative="1" as="geometry">
            <mxPoint x="260" y="380" as="sourcePoint" />
            <mxPoint x="310" y="330" as="targetPoint" />
          </mxGeometry>
        </mxCell>
        <mxCell id="s8e3iDvzChLmO8lVJZJc-3" value="" style="endArrow=none;html=1;rounded=0;exitX=1;exitY=0.5;exitDx=0;exitDy=0;entryX=0;entryY=0.5;entryDx=0;entryDy=0;" edge="1" parent="fFhwRdVrr6M_xQ-t2Iax-1" source="fFhwRdVrr6M_xQ-t2Iax-8" target="fFhwRdVrr6M_xQ-t2Iax-13">
          <mxGeometry width="50" height="50" relative="1" as="geometry">
            <mxPoint x="260" y="380" as="sourcePoint" />
            <mxPoint x="310" y="330" as="targetPoint" />
          </mxGeometry>
        </mxCell>
        <mxCell id="s8e3iDvzChLmO8lVJZJc-4" value="" style="endArrow=none;html=1;rounded=0;exitX=1;exitY=0.5;exitDx=0;exitDy=0;entryX=0;entryY=0.5;entryDx=0;entryDy=0;" edge="1" parent="fFhwRdVrr6M_xQ-t2Iax-1" source="fFhwRdVrr6M_xQ-t2Iax-8" target="fFhwRdVrr6M_xQ-t2Iax-15">
          <mxGeometry width="50" height="50" relative="1" as="geometry">
            <mxPoint x="260" y="380" as="sourcePoint" />
            <mxPoint x="310" y="330" as="targetPoint" />
          </mxGeometry>
        </mxCell>
      </root>
    </mxGraphModel>
  </diagram>
  <diagram id="vAz1oxgeW2ZD1GafbMVm" name="EO-D">
    <mxGraphModel dx="1434" dy="844" grid="1" gridSize="10" guides="1" tooltips="1" connect="1" arrows="1" fold="1" page="1" pageScale="1" pageWidth="827" pageHeight="1169" math="0" shadow="0">
      <root>
        <mxCell id="IPvzmNye1ZXIFDOOcEpz-0" />
        <mxCell id="IPvzmNye1ZXIFDOOcEpz-1" parent="IPvzmNye1ZXIFDOOcEpz-0" />
        <mxCell id="IPvzmNye1ZXIFDOOcEpz-2" value="" style="group" connectable="0" vertex="1" parent="IPvzmNye1ZXIFDOOcEpz-1">
          <mxGeometry x="160" y="280" width="80" height="120" as="geometry" />
        </mxCell>
        <mxCell id="IPvzmNye1ZXIFDOOcEpz-3" value="" style="ellipse;whiteSpace=wrap;html=1;" vertex="1" parent="IPvzmNye1ZXIFDOOcEpz-2">
          <mxGeometry width="80" height="120" as="geometry" />
        </mxCell>
        <mxCell id="IPvzmNye1ZXIFDOOcEpz-4" value="" style="ellipse;whiteSpace=wrap;html=1;aspect=fixed;fillColor=#000000;" vertex="1" parent="IPvzmNye1ZXIFDOOcEpz-2">
          <mxGeometry x="35" y="15" width="10" height="10" as="geometry" />
        </mxCell>
        <mxCell id="IPvzmNye1ZXIFDOOcEpz-5" value="" style="ellipse;whiteSpace=wrap;html=1;aspect=fixed;fillColor=#000000;" vertex="1" parent="IPvzmNye1ZXIFDOOcEpz-2">
          <mxGeometry x="35" y="35" width="10" height="10" as="geometry" />
        </mxCell>
        <mxCell id="IPvzmNye1ZXIFDOOcEpz-6" value="" style="ellipse;whiteSpace=wrap;html=1;aspect=fixed;fillColor=#000000;" vertex="1" parent="IPvzmNye1ZXIFDOOcEpz-2">
          <mxGeometry x="35" y="55" width="10" height="10" as="geometry" />
        </mxCell>
        <mxCell id="IPvzmNye1ZXIFDOOcEpz-7" value="" style="ellipse;whiteSpace=wrap;html=1;aspect=fixed;fillColor=#000000;" vertex="1" parent="IPvzmNye1ZXIFDOOcEpz-2">
          <mxGeometry x="35" y="75" width="10" height="10" as="geometry" />
        </mxCell>
        <mxCell id="IPvzmNye1ZXIFDOOcEpz-8" value="" style="ellipse;whiteSpace=wrap;html=1;aspect=fixed;fillColor=#000000;" vertex="1" parent="IPvzmNye1ZXIFDOOcEpz-2">
          <mxGeometry x="35" y="95" width="10" height="10" as="geometry" />
        </mxCell>
        <mxCell id="IPvzmNye1ZXIFDOOcEpz-9" value="" style="group" connectable="0" vertex="1" parent="IPvzmNye1ZXIFDOOcEpz-1">
          <mxGeometry x="280" y="280" width="80" height="120" as="geometry" />
        </mxCell>
        <mxCell id="IPvzmNye1ZXIFDOOcEpz-10" value="" style="ellipse;whiteSpace=wrap;html=1;" vertex="1" parent="IPvzmNye1ZXIFDOOcEpz-9">
          <mxGeometry width="80" height="120" as="geometry" />
        </mxCell>
        <mxCell id="IPvzmNye1ZXIFDOOcEpz-11" value="" style="ellipse;whiteSpace=wrap;html=1;aspect=fixed;fillColor=#000000;" vertex="1" parent="IPvzmNye1ZXIFDOOcEpz-9">
          <mxGeometry x="35" y="15" width="10" height="10" as="geometry" />
        </mxCell>
        <mxCell id="IPvzmNye1ZXIFDOOcEpz-12" value="" style="ellipse;whiteSpace=wrap;html=1;aspect=fixed;fillColor=#000000;" vertex="1" parent="IPvzmNye1ZXIFDOOcEpz-9">
          <mxGeometry x="35" y="35" width="10" height="10" as="geometry" />
        </mxCell>
        <mxCell id="IPvzmNye1ZXIFDOOcEpz-13" value="" style="ellipse;whiteSpace=wrap;html=1;aspect=fixed;fillColor=#000000;" vertex="1" parent="IPvzmNye1ZXIFDOOcEpz-9">
          <mxGeometry x="35" y="55" width="10" height="10" as="geometry" />
        </mxCell>
        <mxCell id="IPvzmNye1ZXIFDOOcEpz-14" value="" style="ellipse;whiteSpace=wrap;html=1;aspect=fixed;fillColor=#000000;" vertex="1" parent="IPvzmNye1ZXIFDOOcEpz-9">
          <mxGeometry x="35" y="75" width="10" height="10" as="geometry" />
        </mxCell>
        <mxCell id="IPvzmNye1ZXIFDOOcEpz-15" value="" style="ellipse;whiteSpace=wrap;html=1;aspect=fixed;fillColor=#000000;" vertex="1" parent="IPvzmNye1ZXIFDOOcEpz-9">
          <mxGeometry x="35" y="95" width="10" height="10" as="geometry" />
        </mxCell>
        <mxCell id="IPvzmNye1ZXIFDOOcEpz-16" value="" style="endArrow=none;html=1;rounded=0;entryX=0;entryY=0.5;entryDx=0;entryDy=0;" edge="1" parent="IPvzmNye1ZXIFDOOcEpz-1" source="IPvzmNye1ZXIFDOOcEpz-4" target="IPvzmNye1ZXIFDOOcEpz-11">
          <mxGeometry width="50" height="50" relative="1" as="geometry">
            <mxPoint x="300" y="350" as="sourcePoint" />
            <mxPoint x="350" y="300" as="targetPoint" />
          </mxGeometry>
        </mxCell>
        <mxCell id="IPvzmNye1ZXIFDOOcEpz-17" value="" style="endArrow=none;html=1;rounded=0;exitX=1;exitY=0.5;exitDx=0;exitDy=0;entryX=0;entryY=0.5;entryDx=0;entryDy=0;" edge="1" parent="IPvzmNye1ZXIFDOOcEpz-1" source="IPvzmNye1ZXIFDOOcEpz-5" target="IPvzmNye1ZXIFDOOcEpz-12">
          <mxGeometry width="50" height="50" relative="1" as="geometry">
            <mxPoint x="300" y="350" as="sourcePoint" />
            <mxPoint x="350" y="300" as="targetPoint" />
          </mxGeometry>
        </mxCell>
        <mxCell id="IPvzmNye1ZXIFDOOcEpz-18" value="" style="endArrow=none;html=1;rounded=0;exitX=1;exitY=0.5;exitDx=0;exitDy=0;entryX=0;entryY=0.5;entryDx=0;entryDy=0;" edge="1" parent="IPvzmNye1ZXIFDOOcEpz-1" source="IPvzmNye1ZXIFDOOcEpz-7" target="IPvzmNye1ZXIFDOOcEpz-15">
          <mxGeometry width="50" height="50" relative="1" as="geometry">
            <mxPoint x="215" y="390" as="sourcePoint" />
            <mxPoint x="365" y="370" as="targetPoint" />
          </mxGeometry>
        </mxCell>
        <mxCell id="IPvzmNye1ZXIFDOOcEpz-19" value="" style="endArrow=none;html=1;rounded=0;exitX=1;exitY=0.5;exitDx=0;exitDy=0;entryX=0;entryY=0.5;entryDx=0;entryDy=0;" edge="1" parent="IPvzmNye1ZXIFDOOcEpz-1" source="IPvzmNye1ZXIFDOOcEpz-6" target="IPvzmNye1ZXIFDOOcEpz-12">
          <mxGeometry width="50" height="50" relative="1" as="geometry">
            <mxPoint x="260" y="370" as="sourcePoint" />
            <mxPoint x="310" y="320" as="targetPoint" />
          </mxGeometry>
        </mxCell>
        <mxCell id="IPvzmNye1ZXIFDOOcEpz-20" value="" style="endArrow=none;html=1;rounded=0;exitX=1;exitY=0.5;exitDx=0;exitDy=0;entryX=0;entryY=0.5;entryDx=0;entryDy=0;" edge="1" parent="IPvzmNye1ZXIFDOOcEpz-1" source="IPvzmNye1ZXIFDOOcEpz-8" target="IPvzmNye1ZXIFDOOcEpz-15">
          <mxGeometry width="50" height="50" relative="1" as="geometry">
            <mxPoint x="260" y="370" as="sourcePoint" />
            <mxPoint x="310" y="320" as="targetPoint" />
          </mxGeometry>
        </mxCell>
      </root>
    </mxGraphModel>
  </diagram>
  <diagram id="GXbOkKwYZX2AlIVa2SxU" name="EO-E">
    <mxGraphModel dx="1434" dy="844" grid="1" gridSize="10" guides="1" tooltips="1" connect="1" arrows="1" fold="1" page="1" pageScale="1" pageWidth="827" pageHeight="1169" math="0" shadow="0">
      <root>
        <mxCell id="a7Fz_yTfpRfDJkjLkmKo-0" />
        <mxCell id="a7Fz_yTfpRfDJkjLkmKo-1" parent="a7Fz_yTfpRfDJkjLkmKo-0" />
        <mxCell id="a7Fz_yTfpRfDJkjLkmKo-2" value="" style="group" connectable="0" vertex="1" parent="a7Fz_yTfpRfDJkjLkmKo-1">
          <mxGeometry x="160" y="280" width="80" height="120" as="geometry" />
        </mxCell>
        <mxCell id="a7Fz_yTfpRfDJkjLkmKo-3" value="" style="ellipse;whiteSpace=wrap;html=1;" vertex="1" parent="a7Fz_yTfpRfDJkjLkmKo-2">
          <mxGeometry width="80" height="120" as="geometry" />
        </mxCell>
        <mxCell id="a7Fz_yTfpRfDJkjLkmKo-4" value="" style="ellipse;whiteSpace=wrap;html=1;aspect=fixed;fillColor=#000000;" vertex="1" parent="a7Fz_yTfpRfDJkjLkmKo-2">
          <mxGeometry x="35" y="15" width="10" height="10" as="geometry" />
        </mxCell>
        <mxCell id="a7Fz_yTfpRfDJkjLkmKo-5" value="" style="ellipse;whiteSpace=wrap;html=1;aspect=fixed;fillColor=#000000;" vertex="1" parent="a7Fz_yTfpRfDJkjLkmKo-2">
          <mxGeometry x="35" y="35" width="10" height="10" as="geometry" />
        </mxCell>
        <mxCell id="a7Fz_yTfpRfDJkjLkmKo-6" value="" style="ellipse;whiteSpace=wrap;html=1;aspect=fixed;fillColor=#000000;" vertex="1" parent="a7Fz_yTfpRfDJkjLkmKo-2">
          <mxGeometry x="35" y="55" width="10" height="10" as="geometry" />
        </mxCell>
        <mxCell id="a7Fz_yTfpRfDJkjLkmKo-7" value="" style="ellipse;whiteSpace=wrap;html=1;aspect=fixed;fillColor=#000000;" vertex="1" parent="a7Fz_yTfpRfDJkjLkmKo-2">
          <mxGeometry x="35" y="75" width="10" height="10" as="geometry" />
        </mxCell>
        <mxCell id="a7Fz_yTfpRfDJkjLkmKo-8" value="" style="ellipse;whiteSpace=wrap;html=1;aspect=fixed;fillColor=#000000;" vertex="1" parent="a7Fz_yTfpRfDJkjLkmKo-2">
          <mxGeometry x="35" y="95" width="10" height="10" as="geometry" />
        </mxCell>
        <mxCell id="a7Fz_yTfpRfDJkjLkmKo-9" value="" style="group" connectable="0" vertex="1" parent="a7Fz_yTfpRfDJkjLkmKo-1">
          <mxGeometry x="280" y="280" width="80" height="120" as="geometry" />
        </mxCell>
        <mxCell id="a7Fz_yTfpRfDJkjLkmKo-10" value="" style="ellipse;whiteSpace=wrap;html=1;" vertex="1" parent="a7Fz_yTfpRfDJkjLkmKo-9">
          <mxGeometry width="80" height="120" as="geometry" />
        </mxCell>
        <mxCell id="a7Fz_yTfpRfDJkjLkmKo-11" value="" style="ellipse;whiteSpace=wrap;html=1;aspect=fixed;fillColor=#000000;" vertex="1" parent="a7Fz_yTfpRfDJkjLkmKo-9">
          <mxGeometry x="35" y="15" width="10" height="10" as="geometry" />
        </mxCell>
        <mxCell id="a7Fz_yTfpRfDJkjLkmKo-12" value="" style="ellipse;whiteSpace=wrap;html=1;aspect=fixed;fillColor=#000000;" vertex="1" parent="a7Fz_yTfpRfDJkjLkmKo-9">
          <mxGeometry x="35" y="35" width="10" height="10" as="geometry" />
        </mxCell>
        <mxCell id="a7Fz_yTfpRfDJkjLkmKo-13" value="" style="ellipse;whiteSpace=wrap;html=1;aspect=fixed;fillColor=#000000;" vertex="1" parent="a7Fz_yTfpRfDJkjLkmKo-9">
          <mxGeometry x="35" y="55" width="10" height="10" as="geometry" />
        </mxCell>
        <mxCell id="a7Fz_yTfpRfDJkjLkmKo-14" value="" style="ellipse;whiteSpace=wrap;html=1;aspect=fixed;fillColor=#000000;" vertex="1" parent="a7Fz_yTfpRfDJkjLkmKo-9">
          <mxGeometry x="35" y="75" width="10" height="10" as="geometry" />
        </mxCell>
        <mxCell id="a7Fz_yTfpRfDJkjLkmKo-15" value="" style="ellipse;whiteSpace=wrap;html=1;aspect=fixed;fillColor=#000000;" vertex="1" parent="a7Fz_yTfpRfDJkjLkmKo-9">
          <mxGeometry x="35" y="95" width="10" height="10" as="geometry" />
        </mxCell>
        <mxCell id="a7Fz_yTfpRfDJkjLkmKo-16" value="" style="endArrow=none;html=1;rounded=0;entryX=0;entryY=0.5;entryDx=0;entryDy=0;" edge="1" parent="a7Fz_yTfpRfDJkjLkmKo-1" source="a7Fz_yTfpRfDJkjLkmKo-4" target="a7Fz_yTfpRfDJkjLkmKo-11">
          <mxGeometry width="50" height="50" relative="1" as="geometry">
            <mxPoint x="300" y="350" as="sourcePoint" />
            <mxPoint x="350" y="300" as="targetPoint" />
          </mxGeometry>
        </mxCell>
        <mxCell id="a7Fz_yTfpRfDJkjLkmKo-17" value="" style="endArrow=none;html=1;rounded=0;exitX=1;exitY=0.5;exitDx=0;exitDy=0;entryX=0;entryY=0.5;entryDx=0;entryDy=0;" edge="1" parent="a7Fz_yTfpRfDJkjLkmKo-1" source="a7Fz_yTfpRfDJkjLkmKo-5" target="a7Fz_yTfpRfDJkjLkmKo-13">
          <mxGeometry width="50" height="50" relative="1" as="geometry">
            <mxPoint x="300" y="350" as="sourcePoint" />
            <mxPoint x="350" y="300" as="targetPoint" />
          </mxGeometry>
        </mxCell>
        <mxCell id="a7Fz_yTfpRfDJkjLkmKo-18" value="" style="endArrow=none;html=1;rounded=0;exitX=1;exitY=0.5;exitDx=0;exitDy=0;entryX=0;entryY=0.5;entryDx=0;entryDy=0;" edge="1" parent="a7Fz_yTfpRfDJkjLkmKo-1" source="a7Fz_yTfpRfDJkjLkmKo-7" target="a7Fz_yTfpRfDJkjLkmKo-14">
          <mxGeometry width="50" height="50" relative="1" as="geometry">
            <mxPoint x="215" y="390" as="sourcePoint" />
            <mxPoint x="365" y="370" as="targetPoint" />
          </mxGeometry>
        </mxCell>
        <mxCell id="a7Fz_yTfpRfDJkjLkmKo-19" value="" style="endArrow=none;html=1;rounded=0;exitX=1;exitY=0.5;exitDx=0;exitDy=0;entryX=0;entryY=0.5;entryDx=0;entryDy=0;" edge="1" parent="a7Fz_yTfpRfDJkjLkmKo-1" source="a7Fz_yTfpRfDJkjLkmKo-6" target="a7Fz_yTfpRfDJkjLkmKo-13">
          <mxGeometry width="50" height="50" relative="1" as="geometry">
            <mxPoint x="260" y="370" as="sourcePoint" />
            <mxPoint x="310" y="320" as="targetPoint" />
          </mxGeometry>
        </mxCell>
        <mxCell id="a7Fz_yTfpRfDJkjLkmKo-20" value="" style="endArrow=none;html=1;rounded=0;exitX=1;exitY=0.5;exitDx=0;exitDy=0;entryX=0;entryY=0.5;entryDx=0;entryDy=0;" edge="1" parent="a7Fz_yTfpRfDJkjLkmKo-1" source="a7Fz_yTfpRfDJkjLkmKo-8" target="a7Fz_yTfpRfDJkjLkmKo-14">
          <mxGeometry width="50" height="50" relative="1" as="geometry">
            <mxPoint x="260" y="370" as="sourcePoint" />
            <mxPoint x="310" y="320" as="targetPoint" />
          </mxGeometry>
        </mxCell>
      </root>
    </mxGraphModel>
  </diagram>
  <diagram id="9LrmkGD0Nxru8TcG_j-r" name="EO-F">
    <mxGraphModel dx="1434" dy="844" grid="1" gridSize="10" guides="1" tooltips="1" connect="1" arrows="1" fold="1" page="1" pageScale="1" pageWidth="827" pageHeight="1169" math="0" shadow="0">
      <root>
        <mxCell id="uXlff0Rnkau2fNOGuwr8-0" />
        <mxCell id="uXlff0Rnkau2fNOGuwr8-1" parent="uXlff0Rnkau2fNOGuwr8-0" />
        <mxCell id="uXlff0Rnkau2fNOGuwr8-2" value="" style="group" connectable="0" vertex="1" parent="uXlff0Rnkau2fNOGuwr8-1">
          <mxGeometry x="160" y="280" width="80" height="120" as="geometry" />
        </mxCell>
        <mxCell id="uXlff0Rnkau2fNOGuwr8-3" value="" style="ellipse;whiteSpace=wrap;html=1;" vertex="1" parent="uXlff0Rnkau2fNOGuwr8-2">
          <mxGeometry width="80" height="120" as="geometry" />
        </mxCell>
        <mxCell id="uXlff0Rnkau2fNOGuwr8-4" value="" style="ellipse;whiteSpace=wrap;html=1;aspect=fixed;fillColor=#000000;" vertex="1" parent="uXlff0Rnkau2fNOGuwr8-2">
          <mxGeometry x="35" y="15" width="10" height="10" as="geometry" />
        </mxCell>
        <mxCell id="uXlff0Rnkau2fNOGuwr8-5" value="" style="ellipse;whiteSpace=wrap;html=1;aspect=fixed;fillColor=#000000;" vertex="1" parent="uXlff0Rnkau2fNOGuwr8-2">
          <mxGeometry x="35" y="35" width="10" height="10" as="geometry" />
        </mxCell>
        <mxCell id="uXlff0Rnkau2fNOGuwr8-6" value="" style="ellipse;whiteSpace=wrap;html=1;aspect=fixed;fillColor=#000000;" vertex="1" parent="uXlff0Rnkau2fNOGuwr8-2">
          <mxGeometry x="35" y="55" width="10" height="10" as="geometry" />
        </mxCell>
        <mxCell id="uXlff0Rnkau2fNOGuwr8-7" value="" style="ellipse;whiteSpace=wrap;html=1;aspect=fixed;fillColor=#000000;" vertex="1" parent="uXlff0Rnkau2fNOGuwr8-2">
          <mxGeometry x="35" y="75" width="10" height="10" as="geometry" />
        </mxCell>
        <mxCell id="uXlff0Rnkau2fNOGuwr8-8" value="" style="ellipse;whiteSpace=wrap;html=1;aspect=fixed;fillColor=#000000;" vertex="1" parent="uXlff0Rnkau2fNOGuwr8-2">
          <mxGeometry x="35" y="95" width="10" height="10" as="geometry" />
        </mxCell>
        <mxCell id="uXlff0Rnkau2fNOGuwr8-9" value="" style="group" connectable="0" vertex="1" parent="uXlff0Rnkau2fNOGuwr8-1">
          <mxGeometry x="280" y="280" width="80" height="120" as="geometry" />
        </mxCell>
        <mxCell id="uXlff0Rnkau2fNOGuwr8-10" value="" style="ellipse;whiteSpace=wrap;html=1;" vertex="1" parent="uXlff0Rnkau2fNOGuwr8-9">
          <mxGeometry width="80" height="120" as="geometry" />
        </mxCell>
        <mxCell id="uXlff0Rnkau2fNOGuwr8-11" value="" style="ellipse;whiteSpace=wrap;html=1;aspect=fixed;fillColor=#000000;" vertex="1" parent="uXlff0Rnkau2fNOGuwr8-9">
          <mxGeometry x="35" y="15" width="10" height="10" as="geometry" />
        </mxCell>
        <mxCell id="uXlff0Rnkau2fNOGuwr8-12" value="" style="ellipse;whiteSpace=wrap;html=1;aspect=fixed;fillColor=#000000;" vertex="1" parent="uXlff0Rnkau2fNOGuwr8-9">
          <mxGeometry x="35" y="35" width="10" height="10" as="geometry" />
        </mxCell>
        <mxCell id="uXlff0Rnkau2fNOGuwr8-13" value="" style="ellipse;whiteSpace=wrap;html=1;aspect=fixed;fillColor=#000000;" vertex="1" parent="uXlff0Rnkau2fNOGuwr8-9">
          <mxGeometry x="35" y="55" width="10" height="10" as="geometry" />
        </mxCell>
        <mxCell id="uXlff0Rnkau2fNOGuwr8-14" value="" style="ellipse;whiteSpace=wrap;html=1;aspect=fixed;fillColor=#000000;" vertex="1" parent="uXlff0Rnkau2fNOGuwr8-9">
          <mxGeometry x="35" y="75" width="10" height="10" as="geometry" />
        </mxCell>
        <mxCell id="uXlff0Rnkau2fNOGuwr8-15" value="" style="ellipse;whiteSpace=wrap;html=1;aspect=fixed;fillColor=#000000;" vertex="1" parent="uXlff0Rnkau2fNOGuwr8-9">
          <mxGeometry x="35" y="95" width="10" height="10" as="geometry" />
        </mxCell>
        <mxCell id="uXlff0Rnkau2fNOGuwr8-16" value="" style="endArrow=none;html=1;rounded=0;entryX=0;entryY=0.5;entryDx=0;entryDy=0;" edge="1" parent="uXlff0Rnkau2fNOGuwr8-1" source="uXlff0Rnkau2fNOGuwr8-4" target="uXlff0Rnkau2fNOGuwr8-11">
          <mxGeometry width="50" height="50" relative="1" as="geometry">
            <mxPoint x="300" y="350" as="sourcePoint" />
            <mxPoint x="350" y="300" as="targetPoint" />
          </mxGeometry>
        </mxCell>
        <mxCell id="uXlff0Rnkau2fNOGuwr8-17" value="" style="endArrow=none;html=1;rounded=0;exitX=1;exitY=0.5;exitDx=0;exitDy=0;entryX=0;entryY=0.5;entryDx=0;entryDy=0;" edge="1" parent="uXlff0Rnkau2fNOGuwr8-1" source="uXlff0Rnkau2fNOGuwr8-4" target="uXlff0Rnkau2fNOGuwr8-12">
          <mxGeometry width="50" height="50" relative="1" as="geometry">
            <mxPoint x="300" y="350" as="sourcePoint" />
            <mxPoint x="350" y="300" as="targetPoint" />
          </mxGeometry>
        </mxCell>
        <mxCell id="uXlff0Rnkau2fNOGuwr8-18" value="" style="endArrow=none;html=1;rounded=0;exitX=1;exitY=0.5;exitDx=0;exitDy=0;entryX=0;entryY=0.5;entryDx=0;entryDy=0;" edge="1" parent="uXlff0Rnkau2fNOGuwr8-1" source="uXlff0Rnkau2fNOGuwr8-7" target="uXlff0Rnkau2fNOGuwr8-14">
          <mxGeometry width="50" height="50" relative="1" as="geometry">
            <mxPoint x="215" y="390" as="sourcePoint" />
            <mxPoint x="365" y="370" as="targetPoint" />
          </mxGeometry>
        </mxCell>
        <mxCell id="uXlff0Rnkau2fNOGuwr8-19" value="" style="endArrow=none;html=1;rounded=0;exitX=1;exitY=0.5;exitDx=0;exitDy=0;entryX=0;entryY=0.5;entryDx=0;entryDy=0;" edge="1" parent="uXlff0Rnkau2fNOGuwr8-1" source="uXlff0Rnkau2fNOGuwr8-7" target="uXlff0Rnkau2fNOGuwr8-13">
          <mxGeometry width="50" height="50" relative="1" as="geometry">
            <mxPoint x="260" y="370" as="sourcePoint" />
            <mxPoint x="310" y="320" as="targetPoint" />
          </mxGeometry>
        </mxCell>
        <mxCell id="uXlff0Rnkau2fNOGuwr8-20" value="" style="endArrow=none;html=1;rounded=0;exitX=1;exitY=0.5;exitDx=0;exitDy=0;entryX=0;entryY=0.5;entryDx=0;entryDy=0;" edge="1" parent="uXlff0Rnkau2fNOGuwr8-1" source="uXlff0Rnkau2fNOGuwr8-8" target="uXlff0Rnkau2fNOGuwr8-15">
          <mxGeometry width="50" height="50" relative="1" as="geometry">
            <mxPoint x="260" y="370" as="sourcePoint" />
            <mxPoint x="310" y="320" as="targetPoint" />
          </mxGeometry>
        </mxCell>
      </root>
    </mxGraphModel>
  </diagram>
  <diagram id="phyDSZZ00YKXqBx0oo9m" name="EO-G">
    <mxGraphModel dx="1434" dy="844" grid="1" gridSize="10" guides="1" tooltips="1" connect="1" arrows="1" fold="1" page="1" pageScale="1" pageWidth="827" pageHeight="1169" math="0" shadow="0">
      <root>
        <mxCell id="-PR5Qf_OyyJg8aXgUn0e-0" />
        <mxCell id="-PR5Qf_OyyJg8aXgUn0e-1" parent="-PR5Qf_OyyJg8aXgUn0e-0" />
        <mxCell id="-PR5Qf_OyyJg8aXgUn0e-2" value="" style="group" connectable="0" vertex="1" parent="-PR5Qf_OyyJg8aXgUn0e-1">
          <mxGeometry x="160" y="280" width="80" height="120" as="geometry" />
        </mxCell>
        <mxCell id="-PR5Qf_OyyJg8aXgUn0e-3" value="" style="ellipse;whiteSpace=wrap;html=1;" vertex="1" parent="-PR5Qf_OyyJg8aXgUn0e-2">
          <mxGeometry width="80" height="120" as="geometry" />
        </mxCell>
        <mxCell id="-PR5Qf_OyyJg8aXgUn0e-4" value="" style="ellipse;whiteSpace=wrap;html=1;aspect=fixed;fillColor=#000000;" vertex="1" parent="-PR5Qf_OyyJg8aXgUn0e-2">
          <mxGeometry x="35" y="15" width="10" height="10" as="geometry" />
        </mxCell>
        <mxCell id="-PR5Qf_OyyJg8aXgUn0e-5" value="" style="ellipse;whiteSpace=wrap;html=1;aspect=fixed;fillColor=#000000;" vertex="1" parent="-PR5Qf_OyyJg8aXgUn0e-2">
          <mxGeometry x="35" y="35" width="10" height="10" as="geometry" />
        </mxCell>
        <mxCell id="-PR5Qf_OyyJg8aXgUn0e-6" value="" style="ellipse;whiteSpace=wrap;html=1;aspect=fixed;fillColor=#000000;" vertex="1" parent="-PR5Qf_OyyJg8aXgUn0e-2">
          <mxGeometry x="35" y="55" width="10" height="10" as="geometry" />
        </mxCell>
        <mxCell id="-PR5Qf_OyyJg8aXgUn0e-7" value="" style="ellipse;whiteSpace=wrap;html=1;aspect=fixed;fillColor=#000000;" vertex="1" parent="-PR5Qf_OyyJg8aXgUn0e-2">
          <mxGeometry x="35" y="75" width="10" height="10" as="geometry" />
        </mxCell>
        <mxCell id="-PR5Qf_OyyJg8aXgUn0e-8" value="" style="ellipse;whiteSpace=wrap;html=1;aspect=fixed;fillColor=#000000;" vertex="1" parent="-PR5Qf_OyyJg8aXgUn0e-2">
          <mxGeometry x="35" y="95" width="10" height="10" as="geometry" />
        </mxCell>
        <mxCell id="-PR5Qf_OyyJg8aXgUn0e-9" value="" style="group" connectable="0" vertex="1" parent="-PR5Qf_OyyJg8aXgUn0e-1">
          <mxGeometry x="280" y="280" width="80" height="120" as="geometry" />
        </mxCell>
        <mxCell id="-PR5Qf_OyyJg8aXgUn0e-10" value="" style="ellipse;whiteSpace=wrap;html=1;" vertex="1" parent="-PR5Qf_OyyJg8aXgUn0e-9">
          <mxGeometry width="80" height="120" as="geometry" />
        </mxCell>
        <mxCell id="-PR5Qf_OyyJg8aXgUn0e-11" value="" style="ellipse;whiteSpace=wrap;html=1;aspect=fixed;fillColor=#000000;" vertex="1" parent="-PR5Qf_OyyJg8aXgUn0e-9">
          <mxGeometry x="35" y="15" width="10" height="10" as="geometry" />
        </mxCell>
        <mxCell id="-PR5Qf_OyyJg8aXgUn0e-12" value="" style="ellipse;whiteSpace=wrap;html=1;aspect=fixed;fillColor=#000000;" vertex="1" parent="-PR5Qf_OyyJg8aXgUn0e-9">
          <mxGeometry x="35" y="35" width="10" height="10" as="geometry" />
        </mxCell>
        <mxCell id="-PR5Qf_OyyJg8aXgUn0e-13" value="" style="ellipse;whiteSpace=wrap;html=1;aspect=fixed;fillColor=#000000;" vertex="1" parent="-PR5Qf_OyyJg8aXgUn0e-9">
          <mxGeometry x="35" y="55" width="10" height="10" as="geometry" />
        </mxCell>
        <mxCell id="-PR5Qf_OyyJg8aXgUn0e-14" value="" style="ellipse;whiteSpace=wrap;html=1;aspect=fixed;fillColor=#000000;" vertex="1" parent="-PR5Qf_OyyJg8aXgUn0e-9">
          <mxGeometry x="35" y="75" width="10" height="10" as="geometry" />
        </mxCell>
        <mxCell id="-PR5Qf_OyyJg8aXgUn0e-15" value="" style="ellipse;whiteSpace=wrap;html=1;aspect=fixed;fillColor=#000000;" vertex="1" parent="-PR5Qf_OyyJg8aXgUn0e-9">
          <mxGeometry x="35" y="95" width="10" height="10" as="geometry" />
        </mxCell>
        <mxCell id="-PR5Qf_OyyJg8aXgUn0e-16" value="" style="endArrow=none;html=1;rounded=0;entryX=0;entryY=0.5;entryDx=0;entryDy=0;" edge="1" parent="-PR5Qf_OyyJg8aXgUn0e-1" source="-PR5Qf_OyyJg8aXgUn0e-4" target="-PR5Qf_OyyJg8aXgUn0e-11">
          <mxGeometry width="50" height="50" relative="1" as="geometry">
            <mxPoint x="300" y="350" as="sourcePoint" />
            <mxPoint x="350" y="300" as="targetPoint" />
          </mxGeometry>
        </mxCell>
        <mxCell id="-PR5Qf_OyyJg8aXgUn0e-18" value="" style="endArrow=none;html=1;rounded=0;exitX=1;exitY=0.5;exitDx=0;exitDy=0;entryX=0;entryY=0.5;entryDx=0;entryDy=0;" edge="1" parent="-PR5Qf_OyyJg8aXgUn0e-1" source="-PR5Qf_OyyJg8aXgUn0e-7" target="-PR5Qf_OyyJg8aXgUn0e-14">
          <mxGeometry width="50" height="50" relative="1" as="geometry">
            <mxPoint x="215" y="390" as="sourcePoint" />
            <mxPoint x="365" y="370" as="targetPoint" />
          </mxGeometry>
        </mxCell>
        <mxCell id="-PR5Qf_OyyJg8aXgUn0e-19" value="" style="endArrow=none;html=1;rounded=0;exitX=1;exitY=0.5;exitDx=0;exitDy=0;entryX=0;entryY=0.5;entryDx=0;entryDy=0;" edge="1" parent="-PR5Qf_OyyJg8aXgUn0e-1" source="-PR5Qf_OyyJg8aXgUn0e-5" target="-PR5Qf_OyyJg8aXgUn0e-13">
          <mxGeometry width="50" height="50" relative="1" as="geometry">
            <mxPoint x="260" y="380" as="sourcePoint" />
            <mxPoint x="310" y="330" as="targetPoint" />
          </mxGeometry>
        </mxCell>
        <mxCell id="-PR5Qf_OyyJg8aXgUn0e-20" value="" style="endArrow=none;html=1;rounded=0;exitX=1;exitY=0.5;exitDx=0;exitDy=0;entryX=0;entryY=0.5;entryDx=0;entryDy=0;" edge="1" parent="-PR5Qf_OyyJg8aXgUn0e-1" source="-PR5Qf_OyyJg8aXgUn0e-4" target="-PR5Qf_OyyJg8aXgUn0e-12">
          <mxGeometry width="50" height="50" relative="1" as="geometry">
            <mxPoint x="260" y="380" as="sourcePoint" />
            <mxPoint x="310" y="330" as="targetPoint" />
          </mxGeometry>
        </mxCell>
        <mxCell id="-PR5Qf_OyyJg8aXgUn0e-21" value="" style="endArrow=none;html=1;rounded=0;exitX=1;exitY=0.5;exitDx=0;exitDy=0;entryX=0;entryY=0.5;entryDx=0;entryDy=0;" edge="1" parent="-PR5Qf_OyyJg8aXgUn0e-1" source="-PR5Qf_OyyJg8aXgUn0e-6" target="-PR5Qf_OyyJg8aXgUn0e-15">
          <mxGeometry width="50" height="50" relative="1" as="geometry">
            <mxPoint x="260" y="380" as="sourcePoint" />
            <mxPoint x="310" y="330" as="targetPoint" />
          </mxGeometry>
        </mxCell>
        <mxCell id="-PR5Qf_OyyJg8aXgUn0e-22" value="" style="endArrow=none;html=1;rounded=0;exitX=1;exitY=0.5;exitDx=0;exitDy=0;entryX=0;entryY=0.5;entryDx=0;entryDy=0;" edge="1" parent="-PR5Qf_OyyJg8aXgUn0e-1" source="-PR5Qf_OyyJg8aXgUn0e-7" target="-PR5Qf_OyyJg8aXgUn0e-13">
          <mxGeometry width="50" height="50" relative="1" as="geometry">
            <mxPoint x="260" y="380" as="sourcePoint" />
            <mxPoint x="310" y="330" as="targetPoint" />
          </mxGeometry>
        </mxCell>
        <mxCell id="-PR5Qf_OyyJg8aXgUn0e-23" value="" style="endArrow=none;html=1;rounded=0;exitX=1;exitY=0.5;exitDx=0;exitDy=0;entryX=0;entryY=0.5;entryDx=0;entryDy=0;" edge="1" parent="-PR5Qf_OyyJg8aXgUn0e-1" source="-PR5Qf_OyyJg8aXgUn0e-8" target="-PR5Qf_OyyJg8aXgUn0e-15">
          <mxGeometry width="50" height="50" relative="1" as="geometry">
            <mxPoint x="260" y="380" as="sourcePoint" />
            <mxPoint x="310" y="330" as="targetPoint" />
          </mxGeometry>
        </mxCell>
      </root>
    </mxGraphModel>
  </diagram>
  <diagram id="LAzueDganhLDTCjS7yB_" name="EO-H">
    <mxGraphModel dx="1434" dy="844" grid="1" gridSize="10" guides="1" tooltips="1" connect="1" arrows="1" fold="1" page="1" pageScale="1" pageWidth="827" pageHeight="1169" math="0" shadow="0">
      <root>
        <mxCell id="1RhOhzKsbOWFEL4Z5MY1-0" />
        <mxCell id="1RhOhzKsbOWFEL4Z5MY1-1" parent="1RhOhzKsbOWFEL4Z5MY1-0" />
        <mxCell id="1RhOhzKsbOWFEL4Z5MY1-2" value="" style="group" connectable="0" vertex="1" parent="1RhOhzKsbOWFEL4Z5MY1-1">
          <mxGeometry x="160" y="280" width="80" height="120" as="geometry" />
        </mxCell>
        <mxCell id="1RhOhzKsbOWFEL4Z5MY1-3" value="" style="ellipse;whiteSpace=wrap;html=1;" vertex="1" parent="1RhOhzKsbOWFEL4Z5MY1-2">
          <mxGeometry width="80" height="120" as="geometry" />
        </mxCell>
        <mxCell id="1RhOhzKsbOWFEL4Z5MY1-4" value="" style="ellipse;whiteSpace=wrap;html=1;aspect=fixed;fillColor=#000000;" vertex="1" parent="1RhOhzKsbOWFEL4Z5MY1-2">
          <mxGeometry x="35" y="15" width="10" height="10" as="geometry" />
        </mxCell>
        <mxCell id="1RhOhzKsbOWFEL4Z5MY1-5" value="" style="ellipse;whiteSpace=wrap;html=1;aspect=fixed;fillColor=#000000;" vertex="1" parent="1RhOhzKsbOWFEL4Z5MY1-2">
          <mxGeometry x="35" y="35" width="10" height="10" as="geometry" />
        </mxCell>
        <mxCell id="1RhOhzKsbOWFEL4Z5MY1-6" value="" style="ellipse;whiteSpace=wrap;html=1;aspect=fixed;fillColor=#000000;" vertex="1" parent="1RhOhzKsbOWFEL4Z5MY1-2">
          <mxGeometry x="35" y="55" width="10" height="10" as="geometry" />
        </mxCell>
        <mxCell id="1RhOhzKsbOWFEL4Z5MY1-7" value="" style="ellipse;whiteSpace=wrap;html=1;aspect=fixed;fillColor=#000000;" vertex="1" parent="1RhOhzKsbOWFEL4Z5MY1-2">
          <mxGeometry x="35" y="75" width="10" height="10" as="geometry" />
        </mxCell>
        <mxCell id="1RhOhzKsbOWFEL4Z5MY1-8" value="" style="ellipse;whiteSpace=wrap;html=1;aspect=fixed;fillColor=#000000;" vertex="1" parent="1RhOhzKsbOWFEL4Z5MY1-2">
          <mxGeometry x="35" y="95" width="10" height="10" as="geometry" />
        </mxCell>
        <mxCell id="1RhOhzKsbOWFEL4Z5MY1-9" value="" style="group" connectable="0" vertex="1" parent="1RhOhzKsbOWFEL4Z5MY1-1">
          <mxGeometry x="280" y="280" width="80" height="120" as="geometry" />
        </mxCell>
        <mxCell id="1RhOhzKsbOWFEL4Z5MY1-10" value="" style="ellipse;whiteSpace=wrap;html=1;" vertex="1" parent="1RhOhzKsbOWFEL4Z5MY1-9">
          <mxGeometry width="80" height="120" as="geometry" />
        </mxCell>
        <mxCell id="1RhOhzKsbOWFEL4Z5MY1-11" value="" style="ellipse;whiteSpace=wrap;html=1;aspect=fixed;fillColor=#000000;" vertex="1" parent="1RhOhzKsbOWFEL4Z5MY1-9">
          <mxGeometry x="35" y="15" width="10" height="10" as="geometry" />
        </mxCell>
        <mxCell id="1RhOhzKsbOWFEL4Z5MY1-12" value="" style="ellipse;whiteSpace=wrap;html=1;aspect=fixed;fillColor=#000000;" vertex="1" parent="1RhOhzKsbOWFEL4Z5MY1-9">
          <mxGeometry x="35" y="35" width="10" height="10" as="geometry" />
        </mxCell>
        <mxCell id="1RhOhzKsbOWFEL4Z5MY1-13" value="" style="ellipse;whiteSpace=wrap;html=1;aspect=fixed;fillColor=#000000;" vertex="1" parent="1RhOhzKsbOWFEL4Z5MY1-9">
          <mxGeometry x="35" y="55" width="10" height="10" as="geometry" />
        </mxCell>
        <mxCell id="1RhOhzKsbOWFEL4Z5MY1-14" value="" style="ellipse;whiteSpace=wrap;html=1;aspect=fixed;fillColor=#000000;" vertex="1" parent="1RhOhzKsbOWFEL4Z5MY1-9">
          <mxGeometry x="35" y="75" width="10" height="10" as="geometry" />
        </mxCell>
        <mxCell id="1RhOhzKsbOWFEL4Z5MY1-15" value="" style="ellipse;whiteSpace=wrap;html=1;aspect=fixed;fillColor=#000000;" vertex="1" parent="1RhOhzKsbOWFEL4Z5MY1-9">
          <mxGeometry x="35" y="95" width="10" height="10" as="geometry" />
        </mxCell>
        <mxCell id="1RhOhzKsbOWFEL4Z5MY1-17" value="" style="endArrow=none;html=1;rounded=0;exitX=1;exitY=0.5;exitDx=0;exitDy=0;entryX=0;entryY=0.5;entryDx=0;entryDy=0;" edge="1" parent="1RhOhzKsbOWFEL4Z5MY1-1" source="1RhOhzKsbOWFEL4Z5MY1-5" target="1RhOhzKsbOWFEL4Z5MY1-13">
          <mxGeometry width="50" height="50" relative="1" as="geometry">
            <mxPoint x="300" y="350" as="sourcePoint" />
            <mxPoint x="350" y="300" as="targetPoint" />
          </mxGeometry>
        </mxCell>
        <mxCell id="1RhOhzKsbOWFEL4Z5MY1-19" value="" style="endArrow=none;html=1;rounded=0;exitX=1;exitY=0.5;exitDx=0;exitDy=0;entryX=0;entryY=0.5;entryDx=0;entryDy=0;" edge="1" parent="1RhOhzKsbOWFEL4Z5MY1-1" source="1RhOhzKsbOWFEL4Z5MY1-6" target="1RhOhzKsbOWFEL4Z5MY1-14">
          <mxGeometry width="50" height="50" relative="1" as="geometry">
            <mxPoint x="260" y="370" as="sourcePoint" />
            <mxPoint x="310" y="320" as="targetPoint" />
          </mxGeometry>
        </mxCell>
        <mxCell id="1RhOhzKsbOWFEL4Z5MY1-20" value="" style="endArrow=none;html=1;rounded=0;exitX=1;exitY=0.5;exitDx=0;exitDy=0;entryX=0;entryY=0.5;entryDx=0;entryDy=0;" edge="1" parent="1RhOhzKsbOWFEL4Z5MY1-1" source="1RhOhzKsbOWFEL4Z5MY1-8" target="1RhOhzKsbOWFEL4Z5MY1-15">
          <mxGeometry width="50" height="50" relative="1" as="geometry">
            <mxPoint x="260" y="370" as="sourcePoint" />
            <mxPoint x="310" y="320" as="targetPoint" />
          </mxGeometry>
        </mxCell>
      </root>
    </mxGraphModel>
  </diagram>
  <diagram id="TD4E5L5KAKUgm-pAz-yc" name="EO-I">
    <mxGraphModel dx="1434" dy="844" grid="1" gridSize="10" guides="1" tooltips="1" connect="1" arrows="1" fold="1" page="1" pageScale="1" pageWidth="827" pageHeight="1169" math="0" shadow="0">
      <root>
        <mxCell id="70iJuVwPcGPhrA86RSJy-0" />
        <mxCell id="70iJuVwPcGPhrA86RSJy-1" parent="70iJuVwPcGPhrA86RSJy-0" />
        <mxCell id="70iJuVwPcGPhrA86RSJy-2" value="" style="group" connectable="0" vertex="1" parent="70iJuVwPcGPhrA86RSJy-1">
          <mxGeometry x="160" y="280" width="80" height="120" as="geometry" />
        </mxCell>
        <mxCell id="70iJuVwPcGPhrA86RSJy-3" value="" style="ellipse;whiteSpace=wrap;html=1;" vertex="1" parent="70iJuVwPcGPhrA86RSJy-2">
          <mxGeometry width="80" height="120" as="geometry" />
        </mxCell>
        <mxCell id="70iJuVwPcGPhrA86RSJy-4" value="" style="ellipse;whiteSpace=wrap;html=1;aspect=fixed;fillColor=#000000;" vertex="1" parent="70iJuVwPcGPhrA86RSJy-2">
          <mxGeometry x="35" y="15" width="10" height="10" as="geometry" />
        </mxCell>
        <mxCell id="70iJuVwPcGPhrA86RSJy-5" value="" style="ellipse;whiteSpace=wrap;html=1;aspect=fixed;fillColor=#000000;" vertex="1" parent="70iJuVwPcGPhrA86RSJy-2">
          <mxGeometry x="35" y="35" width="10" height="10" as="geometry" />
        </mxCell>
        <mxCell id="70iJuVwPcGPhrA86RSJy-6" value="" style="ellipse;whiteSpace=wrap;html=1;aspect=fixed;fillColor=#000000;" vertex="1" parent="70iJuVwPcGPhrA86RSJy-2">
          <mxGeometry x="35" y="55" width="10" height="10" as="geometry" />
        </mxCell>
        <mxCell id="70iJuVwPcGPhrA86RSJy-7" value="" style="ellipse;whiteSpace=wrap;html=1;aspect=fixed;fillColor=#000000;" vertex="1" parent="70iJuVwPcGPhrA86RSJy-2">
          <mxGeometry x="35" y="75" width="10" height="10" as="geometry" />
        </mxCell>
        <mxCell id="70iJuVwPcGPhrA86RSJy-8" value="" style="ellipse;whiteSpace=wrap;html=1;aspect=fixed;fillColor=#000000;" vertex="1" parent="70iJuVwPcGPhrA86RSJy-2">
          <mxGeometry x="35" y="95" width="10" height="10" as="geometry" />
        </mxCell>
        <mxCell id="70iJuVwPcGPhrA86RSJy-9" value="" style="group" connectable="0" vertex="1" parent="70iJuVwPcGPhrA86RSJy-1">
          <mxGeometry x="280" y="280" width="80" height="120" as="geometry" />
        </mxCell>
        <mxCell id="70iJuVwPcGPhrA86RSJy-10" value="" style="ellipse;whiteSpace=wrap;html=1;" vertex="1" parent="70iJuVwPcGPhrA86RSJy-9">
          <mxGeometry width="80" height="120" as="geometry" />
        </mxCell>
        <mxCell id="70iJuVwPcGPhrA86RSJy-11" value="" style="ellipse;whiteSpace=wrap;html=1;aspect=fixed;fillColor=#000000;" vertex="1" parent="70iJuVwPcGPhrA86RSJy-9">
          <mxGeometry x="35" y="15" width="10" height="10" as="geometry" />
        </mxCell>
        <mxCell id="70iJuVwPcGPhrA86RSJy-12" value="" style="ellipse;whiteSpace=wrap;html=1;aspect=fixed;fillColor=#000000;" vertex="1" parent="70iJuVwPcGPhrA86RSJy-9">
          <mxGeometry x="35" y="35" width="10" height="10" as="geometry" />
        </mxCell>
        <mxCell id="70iJuVwPcGPhrA86RSJy-13" value="" style="ellipse;whiteSpace=wrap;html=1;aspect=fixed;fillColor=#000000;" vertex="1" parent="70iJuVwPcGPhrA86RSJy-9">
          <mxGeometry x="35" y="55" width="10" height="10" as="geometry" />
        </mxCell>
        <mxCell id="70iJuVwPcGPhrA86RSJy-14" value="" style="ellipse;whiteSpace=wrap;html=1;aspect=fixed;fillColor=#000000;" vertex="1" parent="70iJuVwPcGPhrA86RSJy-9">
          <mxGeometry x="35" y="75" width="10" height="10" as="geometry" />
        </mxCell>
        <mxCell id="70iJuVwPcGPhrA86RSJy-15" value="" style="ellipse;whiteSpace=wrap;html=1;aspect=fixed;fillColor=#000000;" vertex="1" parent="70iJuVwPcGPhrA86RSJy-9">
          <mxGeometry x="35" y="95" width="10" height="10" as="geometry" />
        </mxCell>
        <mxCell id="70iJuVwPcGPhrA86RSJy-16" value="" style="endArrow=none;html=1;rounded=0;exitX=1;exitY=0.5;exitDx=0;exitDy=0;entryX=0;entryY=0.5;entryDx=0;entryDy=0;" edge="1" parent="70iJuVwPcGPhrA86RSJy-1" source="70iJuVwPcGPhrA86RSJy-5" target="70iJuVwPcGPhrA86RSJy-11">
          <mxGeometry width="50" height="50" relative="1" as="geometry">
            <mxPoint x="300" y="350" as="sourcePoint" />
            <mxPoint x="350" y="300" as="targetPoint" />
          </mxGeometry>
        </mxCell>
        <mxCell id="70iJuVwPcGPhrA86RSJy-17" value="" style="endArrow=none;html=1;rounded=0;exitX=1;exitY=0.5;exitDx=0;exitDy=0;entryX=0;entryY=0.5;entryDx=0;entryDy=0;" edge="1" parent="70iJuVwPcGPhrA86RSJy-1" source="70iJuVwPcGPhrA86RSJy-6" target="70iJuVwPcGPhrA86RSJy-14">
          <mxGeometry width="50" height="50" relative="1" as="geometry">
            <mxPoint x="260" y="370" as="sourcePoint" />
            <mxPoint x="310" y="320" as="targetPoint" />
          </mxGeometry>
        </mxCell>
        <mxCell id="70iJuVwPcGPhrA86RSJy-18" value="" style="endArrow=none;html=1;rounded=0;exitX=1;exitY=0.5;exitDx=0;exitDy=0;entryX=0;entryY=0.5;entryDx=0;entryDy=0;" edge="1" parent="70iJuVwPcGPhrA86RSJy-1" source="70iJuVwPcGPhrA86RSJy-8" target="70iJuVwPcGPhrA86RSJy-15">
          <mxGeometry width="50" height="50" relative="1" as="geometry">
            <mxPoint x="260" y="370" as="sourcePoint" />
            <mxPoint x="310" y="320" as="targetPoint" />
          </mxGeometry>
        </mxCell>
        <mxCell id="LakP8nqsPQpPzcANQuXL-0" value="" style="endArrow=none;html=1;rounded=0;exitX=1;exitY=0.5;exitDx=0;exitDy=0;entryX=0;entryY=0.5;entryDx=0;entryDy=0;" edge="1" parent="70iJuVwPcGPhrA86RSJy-1" source="70iJuVwPcGPhrA86RSJy-4" target="70iJuVwPcGPhrA86RSJy-12">
          <mxGeometry width="50" height="50" relative="1" as="geometry">
            <mxPoint x="260" y="360" as="sourcePoint" />
            <mxPoint x="310" y="310" as="targetPoint" />
          </mxGeometry>
        </mxCell>
        <mxCell id="LakP8nqsPQpPzcANQuXL-1" value="" style="endArrow=none;html=1;rounded=0;exitX=1;exitY=0.5;exitDx=0;exitDy=0;entryX=0;entryY=0.5;entryDx=0;entryDy=0;" edge="1" parent="70iJuVwPcGPhrA86RSJy-1" source="70iJuVwPcGPhrA86RSJy-7" target="70iJuVwPcGPhrA86RSJy-13">
          <mxGeometry width="50" height="50" relative="1" as="geometry">
            <mxPoint x="260" y="360" as="sourcePoint" />
            <mxPoint x="310" y="310" as="targetPoint" />
          </mxGeometry>
        </mxCell>
      </root>
    </mxGraphModel>
  </diagram>
  <diagram id="1sBUlDM4VhE36CZDE5Rc" name="StudentCourse">
    <mxGraphModel dx="1434" dy="844" grid="1" gridSize="10" guides="1" tooltips="1" connect="1" arrows="1" fold="1" page="1" pageScale="1" pageWidth="827" pageHeight="1169" math="0" shadow="0">
      <root>
        <mxCell id="8Xbo-KBunyf081U47HyO-0" />
        <mxCell id="8Xbo-KBunyf081U47HyO-1" parent="8Xbo-KBunyf081U47HyO-0" />
        <mxCell id="8Xbo-KBunyf081U47HyO-2" style="rounded=0;orthogonalLoop=1;jettySize=auto;html=1;exitX=1;exitY=0.5;exitDx=0;exitDy=0;entryX=0;entryY=0.5;entryDx=0;entryDy=0;endArrow=none;endFill=0;" edge="1" parent="8Xbo-KBunyf081U47HyO-1" source="8Xbo-KBunyf081U47HyO-3" target="8Xbo-KBunyf081U47HyO-6">
          <mxGeometry relative="1" as="geometry" />
        </mxCell>
        <mxCell id="8Xbo-KBunyf081U47HyO-3" value="Student" style="rounded=0;whiteSpace=wrap;html=1;" vertex="1" parent="8Xbo-KBunyf081U47HyO-1">
          <mxGeometry x="340" y="250" width="80" height="60" as="geometry" />
        </mxCell>
        <mxCell id="8Xbo-KBunyf081U47HyO-4" style="edgeStyle=none;rounded=0;orthogonalLoop=1;jettySize=auto;html=1;exitX=0;exitY=0.25;exitDx=0;exitDy=0;endArrow=none;endFill=0;" edge="1" parent="8Xbo-KBunyf081U47HyO-1" source="8Xbo-KBunyf081U47HyO-6">
          <mxGeometry relative="1" as="geometry">
            <mxPoint x="520.0000000000001" y="280" as="targetPoint" />
          </mxGeometry>
        </mxCell>
        <mxCell id="8Xbo-KBunyf081U47HyO-5" style="edgeStyle=none;rounded=0;orthogonalLoop=1;jettySize=auto;html=1;exitX=0;exitY=0.75;exitDx=0;exitDy=0;endArrow=none;endFill=0;" edge="1" parent="8Xbo-KBunyf081U47HyO-1" source="8Xbo-KBunyf081U47HyO-6">
          <mxGeometry relative="1" as="geometry">
            <mxPoint x="520.0000000000001" y="280" as="targetPoint" />
          </mxGeometry>
        </mxCell>
        <mxCell id="8Xbo-KBunyf081U47HyO-6" value="Course" style="rounded=0;whiteSpace=wrap;html=1;" vertex="1" parent="8Xbo-KBunyf081U47HyO-1">
          <mxGeometry x="540" y="250" width="80" height="60" as="geometry" />
        </mxCell>
        <mxCell id="8Xbo-KBunyf081U47HyO-16" value="enrols on" style="text;html=1;strokeColor=none;fillColor=none;align=center;verticalAlign=middle;whiteSpace=wrap;rounded=0;" vertex="1" parent="8Xbo-KBunyf081U47HyO-1">
          <mxGeometry x="440" y="240" width="80" height="30" as="geometry" />
        </mxCell>
        <mxCell id="dyt4ZYZ2lUFOGDuKiYfl-0" style="edgeStyle=none;rounded=0;orthogonalLoop=1;jettySize=auto;html=1;exitX=0;exitY=0.25;exitDx=0;exitDy=0;endArrow=none;endFill=0;" edge="1" parent="8Xbo-KBunyf081U47HyO-1">
          <mxGeometry relative="1" as="geometry">
            <mxPoint x="420.0000000000001" y="295" as="targetPoint" />
            <mxPoint x="440" y="280" as="sourcePoint" />
          </mxGeometry>
        </mxCell>
        <mxCell id="dyt4ZYZ2lUFOGDuKiYfl-1" style="edgeStyle=none;rounded=0;orthogonalLoop=1;jettySize=auto;html=1;exitX=0;exitY=0.75;exitDx=0;exitDy=0;endArrow=none;endFill=0;" edge="1" parent="8Xbo-KBunyf081U47HyO-1">
          <mxGeometry relative="1" as="geometry">
            <mxPoint x="420.0000000000001" y="265" as="targetPoint" />
            <mxPoint x="440" y="280" as="sourcePoint" />
          </mxGeometry>
        </mxCell>
        <mxCell id="LJv-1hkZ6-9dLTnPANKL-0" value="Student" style="swimlane;fontStyle=0;childLayout=stackLayout;horizontal=1;startSize=26;horizontalStack=0;resizeParent=1;resizeParentMax=0;resizeLast=0;collapsible=1;marginBottom=0;align=center;fontSize=14;" vertex="1" parent="8Xbo-KBunyf081U47HyO-1">
          <mxGeometry x="260" y="328" width="80" height="86" as="geometry" />
        </mxCell>
        <mxCell id="LJv-1hkZ6-9dLTnPANKL-1" value="&lt;u&gt;studentID&lt;/u&gt;" style="text;strokeColor=none;fillColor=none;spacingLeft=4;spacingRight=4;overflow=hidden;rotatable=0;points=[[0,0.5],[1,0.5]];portConstraint=eastwest;fontSize=12;whiteSpace=wrap;html=1;align=left;verticalAlign=middle;" vertex="1" parent="LJv-1hkZ6-9dLTnPANKL-0">
          <mxGeometry y="26" width="80" height="20" as="geometry" />
        </mxCell>
        <mxCell id="LJv-1hkZ6-9dLTnPANKL-2" value="first_name" style="text;strokeColor=none;fillColor=none;spacingLeft=4;spacingRight=4;overflow=hidden;rotatable=0;points=[[0,0.5],[1,0.5]];portConstraint=eastwest;fontSize=12;whiteSpace=wrap;html=1;align=left;verticalAlign=middle;" vertex="1" parent="LJv-1hkZ6-9dLTnPANKL-0">
          <mxGeometry y="46" width="80" height="20" as="geometry" />
        </mxCell>
        <mxCell id="LJv-1hkZ6-9dLTnPANKL-3" value="last_name" style="text;strokeColor=none;fillColor=none;spacingLeft=4;spacingRight=4;overflow=hidden;rotatable=0;points=[[0,0.5],[1,0.5]];portConstraint=eastwest;fontSize=12;whiteSpace=wrap;html=1;align=left;verticalAlign=middle;" vertex="1" parent="LJv-1hkZ6-9dLTnPANKL-0">
          <mxGeometry y="66" width="80" height="20" as="geometry" />
        </mxCell>
        <mxCell id="LJv-1hkZ6-9dLTnPANKL-4" value="Course" style="swimlane;fontStyle=0;childLayout=stackLayout;horizontal=1;startSize=26;horizontalStack=0;resizeParent=1;resizeParentMax=0;resizeLast=0;collapsible=1;marginBottom=0;align=center;fontSize=14;" vertex="1" parent="8Xbo-KBunyf081U47HyO-1">
          <mxGeometry x="620" y="328" width="80" height="86" as="geometry" />
        </mxCell>
        <mxCell id="LJv-1hkZ6-9dLTnPANKL-5" value="&lt;u&gt;courseCode&lt;/u&gt;" style="text;strokeColor=none;fillColor=none;spacingLeft=4;spacingRight=4;overflow=hidden;rotatable=0;points=[[0,0.5],[1,0.5]];portConstraint=eastwest;fontSize=12;whiteSpace=wrap;html=1;align=left;verticalAlign=middle;" vertex="1" parent="LJv-1hkZ6-9dLTnPANKL-4">
          <mxGeometry y="26" width="80" height="20" as="geometry" />
        </mxCell>
        <mxCell id="LJv-1hkZ6-9dLTnPANKL-6" value="name" style="text;strokeColor=none;fillColor=none;spacingLeft=4;spacingRight=4;overflow=hidden;rotatable=0;points=[[0,0.5],[1,0.5]];portConstraint=eastwest;fontSize=12;whiteSpace=wrap;html=1;align=left;verticalAlign=middle;" vertex="1" parent="LJv-1hkZ6-9dLTnPANKL-4">
          <mxGeometry y="46" width="80" height="20" as="geometry" />
        </mxCell>
        <mxCell id="LJv-1hkZ6-9dLTnPANKL-7" value="credits" style="text;strokeColor=none;fillColor=none;spacingLeft=4;spacingRight=4;overflow=hidden;rotatable=0;points=[[0,0.5],[1,0.5]];portConstraint=eastwest;fontSize=12;whiteSpace=wrap;html=1;align=left;verticalAlign=middle;" vertex="1" parent="LJv-1hkZ6-9dLTnPANKL-4">
          <mxGeometry y="66" width="80" height="20" as="geometry" />
        </mxCell>
        <mxCell id="LJv-1hkZ6-9dLTnPANKL-8" value="" style="swimlane;fontStyle=0;childLayout=stackLayout;horizontal=1;startSize=26;horizontalStack=0;resizeParent=1;resizeParentMax=0;resizeLast=0;collapsible=1;marginBottom=0;align=center;fontSize=14;" vertex="1" parent="8Xbo-KBunyf081U47HyO-1">
          <mxGeometry x="420" y="328" width="120" height="106" as="geometry" />
        </mxCell>
        <mxCell id="LJv-1hkZ6-9dLTnPANKL-13" style="text;strokeColor=none;fillColor=none;spacingLeft=4;spacingRight=4;overflow=hidden;rotatable=0;points=[[0,0.5],[1,0.5]];portConstraint=eastwest;fontSize=12;whiteSpace=wrap;html=1;align=left;verticalAlign=middle;" vertex="1" parent="LJv-1hkZ6-9dLTnPANKL-8">
          <mxGeometry y="26" width="120" height="20" as="geometry" />
        </mxCell>
        <mxCell id="LJv-1hkZ6-9dLTnPANKL-14" style="text;strokeColor=none;fillColor=none;spacingLeft=4;spacingRight=4;overflow=hidden;rotatable=0;points=[[0,0.5],[1,0.5]];portConstraint=eastwest;fontSize=12;whiteSpace=wrap;html=1;align=left;verticalAlign=middle;" vertex="1" parent="LJv-1hkZ6-9dLTnPANKL-8">
          <mxGeometry y="46" width="120" height="20" as="geometry" />
        </mxCell>
        <mxCell id="LJv-1hkZ6-9dLTnPANKL-12" style="text;strokeColor=none;fillColor=none;spacingLeft=4;spacingRight=4;overflow=hidden;rotatable=0;points=[[0,0.5],[1,0.5]];portConstraint=eastwest;fontSize=12;whiteSpace=wrap;html=1;align=left;verticalAlign=middle;" vertex="1" parent="LJv-1hkZ6-9dLTnPANKL-8">
          <mxGeometry y="66" width="120" height="20" as="geometry" />
        </mxCell>
        <mxCell id="LJv-1hkZ6-9dLTnPANKL-21" style="text;strokeColor=none;fillColor=none;spacingLeft=4;spacingRight=4;overflow=hidden;rotatable=0;points=[[0,0.5],[1,0.5]];portConstraint=eastwest;fontSize=12;whiteSpace=wrap;html=1;align=left;verticalAlign=middle;" vertex="1" parent="LJv-1hkZ6-9dLTnPANKL-8">
          <mxGeometry y="86" width="120" height="20" as="geometry" />
        </mxCell>
        <mxCell id="LJv-1hkZ6-9dLTnPANKL-15" style="rounded=0;orthogonalLoop=1;jettySize=auto;html=1;exitX=1.006;exitY=0.565;exitDx=0;exitDy=0;endArrow=none;endFill=0;exitPerimeter=0;" edge="1" parent="8Xbo-KBunyf081U47HyO-1" source="LJv-1hkZ6-9dLTnPANKL-2">
          <mxGeometry relative="1" as="geometry">
            <mxPoint x="320" y="385" as="sourcePoint" />
            <mxPoint x="420" y="385" as="targetPoint" />
          </mxGeometry>
        </mxCell>
        <mxCell id="LJv-1hkZ6-9dLTnPANKL-16" style="edgeStyle=none;rounded=0;orthogonalLoop=1;jettySize=auto;html=1;exitX=0;exitY=0.25;exitDx=0;exitDy=0;endArrow=none;endFill=0;" edge="1" parent="8Xbo-KBunyf081U47HyO-1">
          <mxGeometry relative="1" as="geometry">
            <mxPoint x="400.0000000000001" y="385" as="targetPoint" />
            <mxPoint x="420" y="370" as="sourcePoint" />
          </mxGeometry>
        </mxCell>
        <mxCell id="LJv-1hkZ6-9dLTnPANKL-17" style="edgeStyle=none;rounded=0;orthogonalLoop=1;jettySize=auto;html=1;exitX=0;exitY=0.75;exitDx=0;exitDy=0;endArrow=none;endFill=0;" edge="1" parent="8Xbo-KBunyf081U47HyO-1">
          <mxGeometry relative="1" as="geometry">
            <mxPoint x="400.0000000000001" y="385" as="targetPoint" />
            <mxPoint x="420" y="400" as="sourcePoint" />
          </mxGeometry>
        </mxCell>
        <mxCell id="LJv-1hkZ6-9dLTnPANKL-18" style="rounded=0;orthogonalLoop=1;jettySize=auto;html=1;entryX=0;entryY=0.5;entryDx=0;entryDy=0;endArrow=none;endFill=0;" edge="1" parent="8Xbo-KBunyf081U47HyO-1">
          <mxGeometry relative="1" as="geometry">
            <mxPoint x="540" y="385" as="sourcePoint" />
            <mxPoint x="620" y="385" as="targetPoint" />
          </mxGeometry>
        </mxCell>
        <mxCell id="LJv-1hkZ6-9dLTnPANKL-19" style="edgeStyle=none;rounded=0;orthogonalLoop=1;jettySize=auto;html=1;exitX=0;exitY=0.25;exitDx=0;exitDy=0;endArrow=none;endFill=0;" edge="1" parent="8Xbo-KBunyf081U47HyO-1">
          <mxGeometry relative="1" as="geometry">
            <mxPoint x="540.0000000000001" y="400" as="targetPoint" />
            <mxPoint x="560" y="385" as="sourcePoint" />
          </mxGeometry>
        </mxCell>
        <mxCell id="LJv-1hkZ6-9dLTnPANKL-20" style="edgeStyle=none;rounded=0;orthogonalLoop=1;jettySize=auto;html=1;exitX=0;exitY=0.75;exitDx=0;exitDy=0;endArrow=none;endFill=0;" edge="1" parent="8Xbo-KBunyf081U47HyO-1">
          <mxGeometry relative="1" as="geometry">
            <mxPoint x="540.0000000000001" y="370" as="targetPoint" />
            <mxPoint x="560" y="385" as="sourcePoint" />
          </mxGeometry>
        </mxCell>
      </root>
    </mxGraphModel>
  </diagram>
  <diagram id="TsIZo8rf0Hsb479ErKi5" name="BookAuthor">
    <mxGraphModel dx="1434" dy="844" grid="1" gridSize="10" guides="1" tooltips="1" connect="1" arrows="1" fold="1" page="1" pageScale="1" pageWidth="827" pageHeight="1169" math="0" shadow="0">
      <root>
        <mxCell id="UTXXCjIn2-acjpcnQmLA-0" />
        <mxCell id="UTXXCjIn2-acjpcnQmLA-1" parent="UTXXCjIn2-acjpcnQmLA-0" />
        <mxCell id="UTXXCjIn2-acjpcnQmLA-2" style="rounded=0;orthogonalLoop=1;jettySize=auto;html=1;exitX=1;exitY=0.5;exitDx=0;exitDy=0;entryX=0;entryY=0.5;entryDx=0;entryDy=0;endArrow=none;endFill=0;" edge="1" parent="UTXXCjIn2-acjpcnQmLA-1" source="UTXXCjIn2-acjpcnQmLA-3" target="UTXXCjIn2-acjpcnQmLA-6">
          <mxGeometry relative="1" as="geometry" />
        </mxCell>
        <mxCell id="UTXXCjIn2-acjpcnQmLA-3" value="Book" style="rounded=0;whiteSpace=wrap;html=1;" vertex="1" parent="UTXXCjIn2-acjpcnQmLA-1">
          <mxGeometry x="340" y="250" width="80" height="60" as="geometry" />
        </mxCell>
        <mxCell id="UTXXCjIn2-acjpcnQmLA-4" style="edgeStyle=none;rounded=0;orthogonalLoop=1;jettySize=auto;html=1;exitX=0;exitY=0.25;exitDx=0;exitDy=0;endArrow=none;endFill=0;" edge="1" parent="UTXXCjIn2-acjpcnQmLA-1" source="UTXXCjIn2-acjpcnQmLA-6">
          <mxGeometry relative="1" as="geometry">
            <mxPoint x="520.0000000000001" y="280" as="targetPoint" />
          </mxGeometry>
        </mxCell>
        <mxCell id="UTXXCjIn2-acjpcnQmLA-5" style="edgeStyle=none;rounded=0;orthogonalLoop=1;jettySize=auto;html=1;exitX=0;exitY=0.75;exitDx=0;exitDy=0;endArrow=none;endFill=0;" edge="1" parent="UTXXCjIn2-acjpcnQmLA-1" source="UTXXCjIn2-acjpcnQmLA-6">
          <mxGeometry relative="1" as="geometry">
            <mxPoint x="520.0000000000001" y="280" as="targetPoint" />
          </mxGeometry>
        </mxCell>
        <mxCell id="UTXXCjIn2-acjpcnQmLA-6" value="Author" style="rounded=0;whiteSpace=wrap;html=1;" vertex="1" parent="UTXXCjIn2-acjpcnQmLA-1">
          <mxGeometry x="540" y="250" width="80" height="60" as="geometry" />
        </mxCell>
        <mxCell id="UTXXCjIn2-acjpcnQmLA-7" value="written by" style="text;html=1;strokeColor=none;fillColor=none;align=center;verticalAlign=middle;whiteSpace=wrap;rounded=0;" vertex="1" parent="UTXXCjIn2-acjpcnQmLA-1">
          <mxGeometry x="440" y="240" width="80" height="30" as="geometry" />
        </mxCell>
        <mxCell id="UTXXCjIn2-acjpcnQmLA-8" style="edgeStyle=none;rounded=0;orthogonalLoop=1;jettySize=auto;html=1;exitX=0;exitY=0.25;exitDx=0;exitDy=0;endArrow=none;endFill=0;" edge="1" parent="UTXXCjIn2-acjpcnQmLA-1">
          <mxGeometry relative="1" as="geometry">
            <mxPoint x="420.0000000000001" y="295" as="targetPoint" />
            <mxPoint x="440" y="280" as="sourcePoint" />
          </mxGeometry>
        </mxCell>
        <mxCell id="UTXXCjIn2-acjpcnQmLA-9" style="edgeStyle=none;rounded=0;orthogonalLoop=1;jettySize=auto;html=1;exitX=0;exitY=0.75;exitDx=0;exitDy=0;endArrow=none;endFill=0;" edge="1" parent="UTXXCjIn2-acjpcnQmLA-1">
          <mxGeometry relative="1" as="geometry">
            <mxPoint x="420.0000000000001" y="265" as="targetPoint" />
            <mxPoint x="440" y="280" as="sourcePoint" />
          </mxGeometry>
        </mxCell>
        <mxCell id="UTXXCjIn2-acjpcnQmLA-10" value="Book" style="swimlane;fontStyle=0;childLayout=stackLayout;horizontal=1;startSize=26;horizontalStack=0;resizeParent=1;resizeParentMax=0;resizeLast=0;collapsible=1;marginBottom=0;align=center;fontSize=14;" vertex="1" parent="UTXXCjIn2-acjpcnQmLA-1">
          <mxGeometry x="260" y="328" width="80" height="106" as="geometry" />
        </mxCell>
        <mxCell id="UTXXCjIn2-acjpcnQmLA-11" value="&lt;u&gt;ISBN&lt;/u&gt;" style="text;strokeColor=none;fillColor=none;spacingLeft=4;spacingRight=4;overflow=hidden;rotatable=0;points=[[0,0.5],[1,0.5]];portConstraint=eastwest;fontSize=12;whiteSpace=wrap;html=1;align=left;verticalAlign=middle;" vertex="1" parent="UTXXCjIn2-acjpcnQmLA-10">
          <mxGeometry y="26" width="80" height="20" as="geometry" />
        </mxCell>
        <mxCell id="UTXXCjIn2-acjpcnQmLA-12" value="title" style="text;strokeColor=none;fillColor=none;spacingLeft=4;spacingRight=4;overflow=hidden;rotatable=0;points=[[0,0.5],[1,0.5]];portConstraint=eastwest;fontSize=12;whiteSpace=wrap;html=1;align=left;verticalAlign=middle;" vertex="1" parent="UTXXCjIn2-acjpcnQmLA-10">
          <mxGeometry y="46" width="80" height="20" as="geometry" />
        </mxCell>
        <mxCell id="UTXXCjIn2-acjpcnQmLA-13" value="genre" style="text;strokeColor=none;fillColor=none;spacingLeft=4;spacingRight=4;overflow=hidden;rotatable=0;points=[[0,0.5],[1,0.5]];portConstraint=eastwest;fontSize=12;whiteSpace=wrap;html=1;align=left;verticalAlign=middle;" vertex="1" parent="UTXXCjIn2-acjpcnQmLA-10">
          <mxGeometry y="66" width="80" height="20" as="geometry" />
        </mxCell>
        <mxCell id="GQnL1kHio9u-d-2gP1dZ-1" value="description" style="text;strokeColor=none;fillColor=none;spacingLeft=4;spacingRight=4;overflow=hidden;rotatable=0;points=[[0,0.5],[1,0.5]];portConstraint=eastwest;fontSize=12;whiteSpace=wrap;html=1;align=left;verticalAlign=middle;" vertex="1" parent="UTXXCjIn2-acjpcnQmLA-10">
          <mxGeometry y="86" width="80" height="20" as="geometry" />
        </mxCell>
        <mxCell id="UTXXCjIn2-acjpcnQmLA-14" value="Author" style="swimlane;fontStyle=0;childLayout=stackLayout;horizontal=1;startSize=26;horizontalStack=0;resizeParent=1;resizeParentMax=0;resizeLast=0;collapsible=1;marginBottom=0;align=center;fontSize=14;" vertex="1" parent="UTXXCjIn2-acjpcnQmLA-1">
          <mxGeometry x="620" y="328" width="80" height="106" as="geometry" />
        </mxCell>
        <mxCell id="UTXXCjIn2-acjpcnQmLA-15" value="&lt;u&gt;authorID&lt;/u&gt;" style="text;strokeColor=none;fillColor=none;spacingLeft=4;spacingRight=4;overflow=hidden;rotatable=0;points=[[0,0.5],[1,0.5]];portConstraint=eastwest;fontSize=12;whiteSpace=wrap;html=1;align=left;verticalAlign=middle;" vertex="1" parent="UTXXCjIn2-acjpcnQmLA-14">
          <mxGeometry y="26" width="80" height="20" as="geometry" />
        </mxCell>
        <mxCell id="UTXXCjIn2-acjpcnQmLA-16" value="forename" style="text;strokeColor=none;fillColor=none;spacingLeft=4;spacingRight=4;overflow=hidden;rotatable=0;points=[[0,0.5],[1,0.5]];portConstraint=eastwest;fontSize=12;whiteSpace=wrap;html=1;align=left;verticalAlign=middle;" vertex="1" parent="UTXXCjIn2-acjpcnQmLA-14">
          <mxGeometry y="46" width="80" height="20" as="geometry" />
        </mxCell>
        <mxCell id="UTXXCjIn2-acjpcnQmLA-17" value="surname" style="text;strokeColor=none;fillColor=none;spacingLeft=4;spacingRight=4;overflow=hidden;rotatable=0;points=[[0,0.5],[1,0.5]];portConstraint=eastwest;fontSize=12;whiteSpace=wrap;html=1;align=left;verticalAlign=middle;" vertex="1" parent="UTXXCjIn2-acjpcnQmLA-14">
          <mxGeometry y="66" width="80" height="20" as="geometry" />
        </mxCell>
        <mxCell id="GQnL1kHio9u-d-2gP1dZ-0" value="known_as" style="text;strokeColor=none;fillColor=none;spacingLeft=4;spacingRight=4;overflow=hidden;rotatable=0;points=[[0,0.5],[1,0.5]];portConstraint=eastwest;fontSize=12;whiteSpace=wrap;html=1;align=left;verticalAlign=middle;" vertex="1" parent="UTXXCjIn2-acjpcnQmLA-14">
          <mxGeometry y="86" width="80" height="20" as="geometry" />
        </mxCell>
        <mxCell id="UTXXCjIn2-acjpcnQmLA-18" value="" style="swimlane;fontStyle=0;childLayout=stackLayout;horizontal=1;startSize=26;horizontalStack=0;resizeParent=1;resizeParentMax=0;resizeLast=0;collapsible=1;marginBottom=0;align=center;fontSize=14;" vertex="1" parent="UTXXCjIn2-acjpcnQmLA-1">
          <mxGeometry x="420" y="328" width="120" height="106" as="geometry" />
        </mxCell>
        <mxCell id="UTXXCjIn2-acjpcnQmLA-19" style="text;strokeColor=none;fillColor=none;spacingLeft=4;spacingRight=4;overflow=hidden;rotatable=0;points=[[0,0.5],[1,0.5]];portConstraint=eastwest;fontSize=12;whiteSpace=wrap;html=1;align=left;verticalAlign=middle;" vertex="1" parent="UTXXCjIn2-acjpcnQmLA-18">
          <mxGeometry y="26" width="120" height="20" as="geometry" />
        </mxCell>
        <mxCell id="UTXXCjIn2-acjpcnQmLA-20" style="text;strokeColor=none;fillColor=none;spacingLeft=4;spacingRight=4;overflow=hidden;rotatable=0;points=[[0,0.5],[1,0.5]];portConstraint=eastwest;fontSize=12;whiteSpace=wrap;html=1;align=left;verticalAlign=middle;" vertex="1" parent="UTXXCjIn2-acjpcnQmLA-18">
          <mxGeometry y="46" width="120" height="20" as="geometry" />
        </mxCell>
        <mxCell id="UTXXCjIn2-acjpcnQmLA-21" style="text;strokeColor=none;fillColor=none;spacingLeft=4;spacingRight=4;overflow=hidden;rotatable=0;points=[[0,0.5],[1,0.5]];portConstraint=eastwest;fontSize=12;whiteSpace=wrap;html=1;align=left;verticalAlign=middle;" vertex="1" parent="UTXXCjIn2-acjpcnQmLA-18">
          <mxGeometry y="66" width="120" height="20" as="geometry" />
        </mxCell>
        <mxCell id="UTXXCjIn2-acjpcnQmLA-22" style="text;strokeColor=none;fillColor=none;spacingLeft=4;spacingRight=4;overflow=hidden;rotatable=0;points=[[0,0.5],[1,0.5]];portConstraint=eastwest;fontSize=12;whiteSpace=wrap;html=1;align=left;verticalAlign=middle;" vertex="1" parent="UTXXCjIn2-acjpcnQmLA-18">
          <mxGeometry y="86" width="120" height="20" as="geometry" />
        </mxCell>
        <mxCell id="UTXXCjIn2-acjpcnQmLA-23" style="rounded=0;orthogonalLoop=1;jettySize=auto;html=1;exitX=1.006;exitY=0.565;exitDx=0;exitDy=0;endArrow=none;endFill=0;exitPerimeter=0;" edge="1" parent="UTXXCjIn2-acjpcnQmLA-1" source="UTXXCjIn2-acjpcnQmLA-12">
          <mxGeometry relative="1" as="geometry">
            <mxPoint x="320" y="385" as="sourcePoint" />
            <mxPoint x="420" y="385" as="targetPoint" />
          </mxGeometry>
        </mxCell>
        <mxCell id="UTXXCjIn2-acjpcnQmLA-24" style="edgeStyle=none;rounded=0;orthogonalLoop=1;jettySize=auto;html=1;exitX=0;exitY=0.25;exitDx=0;exitDy=0;endArrow=none;endFill=0;" edge="1" parent="UTXXCjIn2-acjpcnQmLA-1">
          <mxGeometry relative="1" as="geometry">
            <mxPoint x="400.0000000000001" y="385" as="targetPoint" />
            <mxPoint x="420" y="370" as="sourcePoint" />
          </mxGeometry>
        </mxCell>
        <mxCell id="UTXXCjIn2-acjpcnQmLA-25" style="edgeStyle=none;rounded=0;orthogonalLoop=1;jettySize=auto;html=1;exitX=0;exitY=0.75;exitDx=0;exitDy=0;endArrow=none;endFill=0;" edge="1" parent="UTXXCjIn2-acjpcnQmLA-1">
          <mxGeometry relative="1" as="geometry">
            <mxPoint x="400.0000000000001" y="385" as="targetPoint" />
            <mxPoint x="420" y="400" as="sourcePoint" />
          </mxGeometry>
        </mxCell>
        <mxCell id="UTXXCjIn2-acjpcnQmLA-26" style="rounded=0;orthogonalLoop=1;jettySize=auto;html=1;entryX=0;entryY=0.5;entryDx=0;entryDy=0;endArrow=none;endFill=0;" edge="1" parent="UTXXCjIn2-acjpcnQmLA-1">
          <mxGeometry relative="1" as="geometry">
            <mxPoint x="540" y="385" as="sourcePoint" />
            <mxPoint x="620" y="385" as="targetPoint" />
          </mxGeometry>
        </mxCell>
        <mxCell id="UTXXCjIn2-acjpcnQmLA-27" style="edgeStyle=none;rounded=0;orthogonalLoop=1;jettySize=auto;html=1;exitX=0;exitY=0.25;exitDx=0;exitDy=0;endArrow=none;endFill=0;" edge="1" parent="UTXXCjIn2-acjpcnQmLA-1">
          <mxGeometry relative="1" as="geometry">
            <mxPoint x="540.0000000000001" y="400" as="targetPoint" />
            <mxPoint x="560" y="385" as="sourcePoint" />
          </mxGeometry>
        </mxCell>
        <mxCell id="UTXXCjIn2-acjpcnQmLA-28" style="edgeStyle=none;rounded=0;orthogonalLoop=1;jettySize=auto;html=1;exitX=0;exitY=0.75;exitDx=0;exitDy=0;endArrow=none;endFill=0;" edge="1" parent="UTXXCjIn2-acjpcnQmLA-1">
          <mxGeometry relative="1" as="geometry">
            <mxPoint x="540.0000000000001" y="370" as="targetPoint" />
            <mxPoint x="560" y="385" as="sourcePoint" />
          </mxGeometry>
        </mxCell>
      </root>
    </mxGraphModel>
  </diagram>
  <diagram id="O_XHRH4gM9jiQLcrIDdh" name="ArtistArtwork">
    <mxGraphModel dx="1434" dy="844" grid="1" gridSize="10" guides="1" tooltips="1" connect="1" arrows="1" fold="1" page="1" pageScale="1" pageWidth="827" pageHeight="1169" math="0" shadow="0">
      <root>
        <mxCell id="5d52nSm6-lO-FbWmwKMX-0" />
        <mxCell id="5d52nSm6-lO-FbWmwKMX-1" parent="5d52nSm6-lO-FbWmwKMX-0" />
        <mxCell id="5d52nSm6-lO-FbWmwKMX-2" style="rounded=0;orthogonalLoop=1;jettySize=auto;html=1;exitX=1;exitY=0.5;exitDx=0;exitDy=0;entryX=0;entryY=0.5;entryDx=0;entryDy=0;endArrow=none;endFill=0;" edge="1" parent="5d52nSm6-lO-FbWmwKMX-1" source="5d52nSm6-lO-FbWmwKMX-3" target="5d52nSm6-lO-FbWmwKMX-6">
          <mxGeometry relative="1" as="geometry" />
        </mxCell>
        <mxCell id="5d52nSm6-lO-FbWmwKMX-3" value="Artist" style="rounded=0;whiteSpace=wrap;html=1;" vertex="1" parent="5d52nSm6-lO-FbWmwKMX-1">
          <mxGeometry x="340" y="250" width="80" height="60" as="geometry" />
        </mxCell>
        <mxCell id="5d52nSm6-lO-FbWmwKMX-4" style="edgeStyle=none;rounded=0;orthogonalLoop=1;jettySize=auto;html=1;exitX=0;exitY=0.25;exitDx=0;exitDy=0;endArrow=none;endFill=0;" edge="1" parent="5d52nSm6-lO-FbWmwKMX-1" source="5d52nSm6-lO-FbWmwKMX-6">
          <mxGeometry relative="1" as="geometry">
            <mxPoint x="520.0000000000001" y="280" as="targetPoint" />
          </mxGeometry>
        </mxCell>
        <mxCell id="5d52nSm6-lO-FbWmwKMX-5" style="edgeStyle=none;rounded=0;orthogonalLoop=1;jettySize=auto;html=1;exitX=0;exitY=0.75;exitDx=0;exitDy=0;endArrow=none;endFill=0;" edge="1" parent="5d52nSm6-lO-FbWmwKMX-1" source="5d52nSm6-lO-FbWmwKMX-6">
          <mxGeometry relative="1" as="geometry">
            <mxPoint x="520.0000000000001" y="280" as="targetPoint" />
          </mxGeometry>
        </mxCell>
        <mxCell id="5d52nSm6-lO-FbWmwKMX-6" value="Artwork" style="rounded=0;whiteSpace=wrap;html=1;" vertex="1" parent="5d52nSm6-lO-FbWmwKMX-1">
          <mxGeometry x="540" y="250" width="80" height="60" as="geometry" />
        </mxCell>
        <mxCell id="5d52nSm6-lO-FbWmwKMX-7" value="creates" style="text;html=1;strokeColor=none;fillColor=none;align=center;verticalAlign=middle;whiteSpace=wrap;rounded=0;" vertex="1" parent="5d52nSm6-lO-FbWmwKMX-1">
          <mxGeometry x="440" y="240" width="80" height="30" as="geometry" />
        </mxCell>
        <mxCell id="5d52nSm6-lO-FbWmwKMX-8" style="edgeStyle=none;rounded=0;orthogonalLoop=1;jettySize=auto;html=1;exitX=0;exitY=0.25;exitDx=0;exitDy=0;endArrow=none;endFill=0;" edge="1" parent="5d52nSm6-lO-FbWmwKMX-1">
          <mxGeometry relative="1" as="geometry">
            <mxPoint x="420.0000000000001" y="295" as="targetPoint" />
            <mxPoint x="440" y="280" as="sourcePoint" />
          </mxGeometry>
        </mxCell>
        <mxCell id="5d52nSm6-lO-FbWmwKMX-9" style="edgeStyle=none;rounded=0;orthogonalLoop=1;jettySize=auto;html=1;exitX=0;exitY=0.75;exitDx=0;exitDy=0;endArrow=none;endFill=0;" edge="1" parent="5d52nSm6-lO-FbWmwKMX-1">
          <mxGeometry relative="1" as="geometry">
            <mxPoint x="420.0000000000001" y="265" as="targetPoint" />
            <mxPoint x="440" y="280" as="sourcePoint" />
          </mxGeometry>
        </mxCell>
        <mxCell id="5d52nSm6-lO-FbWmwKMX-10" value="Artist" style="swimlane;fontStyle=0;childLayout=stackLayout;horizontal=1;startSize=26;horizontalStack=0;resizeParent=1;resizeParentMax=0;resizeLast=0;collapsible=1;marginBottom=0;align=center;fontSize=14;" vertex="1" parent="5d52nSm6-lO-FbWmwKMX-1">
          <mxGeometry x="260" y="328" width="80" height="166" as="geometry" />
        </mxCell>
        <mxCell id="5d52nSm6-lO-FbWmwKMX-11" value="&lt;u&gt;artistID&lt;/u&gt;" style="text;strokeColor=none;fillColor=none;spacingLeft=4;spacingRight=4;overflow=hidden;rotatable=0;points=[[0,0.5],[1,0.5]];portConstraint=eastwest;fontSize=12;whiteSpace=wrap;html=1;align=left;verticalAlign=middle;" vertex="1" parent="5d52nSm6-lO-FbWmwKMX-10">
          <mxGeometry y="26" width="80" height="20" as="geometry" />
        </mxCell>
        <mxCell id="5d52nSm6-lO-FbWmwKMX-12" value="forename" style="text;strokeColor=none;fillColor=none;spacingLeft=4;spacingRight=4;overflow=hidden;rotatable=0;points=[[0,0.5],[1,0.5]];portConstraint=eastwest;fontSize=12;whiteSpace=wrap;html=1;align=left;verticalAlign=middle;" vertex="1" parent="5d52nSm6-lO-FbWmwKMX-10">
          <mxGeometry y="46" width="80" height="20" as="geometry" />
        </mxCell>
        <mxCell id="5d52nSm6-lO-FbWmwKMX-13" value="surname" style="text;strokeColor=none;fillColor=none;spacingLeft=4;spacingRight=4;overflow=hidden;rotatable=0;points=[[0,0.5],[1,0.5]];portConstraint=eastwest;fontSize=12;whiteSpace=wrap;html=1;align=left;verticalAlign=middle;" vertex="1" parent="5d52nSm6-lO-FbWmwKMX-10">
          <mxGeometry y="66" width="80" height="20" as="geometry" />
        </mxCell>
        <mxCell id="5d52nSm6-lO-FbWmwKMX-14" value="dob" style="text;strokeColor=none;fillColor=none;spacingLeft=4;spacingRight=4;overflow=hidden;rotatable=0;points=[[0,0.5],[1,0.5]];portConstraint=eastwest;fontSize=12;whiteSpace=wrap;html=1;align=left;verticalAlign=middle;" vertex="1" parent="5d52nSm6-lO-FbWmwKMX-10">
          <mxGeometry y="86" width="80" height="20" as="geometry" />
        </mxCell>
        <mxCell id="3O8WP1Vw1RuwNpBKoI2w-0" value="main_style" style="text;strokeColor=none;fillColor=none;spacingLeft=4;spacingRight=4;overflow=hidden;rotatable=0;points=[[0,0.5],[1,0.5]];portConstraint=eastwest;fontSize=12;whiteSpace=wrap;html=1;align=left;verticalAlign=middle;" vertex="1" parent="5d52nSm6-lO-FbWmwKMX-10">
          <mxGeometry y="106" width="80" height="20" as="geometry" />
        </mxCell>
        <mxCell id="3O8WP1Vw1RuwNpBKoI2w-5" value="other_style" style="text;strokeColor=none;fillColor=none;spacingLeft=4;spacingRight=4;overflow=hidden;rotatable=0;points=[[0,0.5],[1,0.5]];portConstraint=eastwest;fontSize=12;whiteSpace=wrap;html=1;align=left;verticalAlign=middle;" vertex="1" parent="5d52nSm6-lO-FbWmwKMX-10">
          <mxGeometry y="126" width="80" height="20" as="geometry" />
        </mxCell>
        <mxCell id="3O8WP1Vw1RuwNpBKoI2w-1" value="deceased" style="text;strokeColor=none;fillColor=none;spacingLeft=4;spacingRight=4;overflow=hidden;rotatable=0;points=[[0,0.5],[1,0.5]];portConstraint=eastwest;fontSize=12;whiteSpace=wrap;html=1;align=left;verticalAlign=middle;" vertex="1" parent="5d52nSm6-lO-FbWmwKMX-10">
          <mxGeometry y="146" width="80" height="20" as="geometry" />
        </mxCell>
        <mxCell id="5d52nSm6-lO-FbWmwKMX-15" value="Artwork" style="swimlane;fontStyle=0;childLayout=stackLayout;horizontal=1;startSize=26;horizontalStack=0;resizeParent=1;resizeParentMax=0;resizeLast=0;collapsible=1;marginBottom=0;align=center;fontSize=14;" vertex="1" parent="5d52nSm6-lO-FbWmwKMX-1">
          <mxGeometry x="620" y="328" width="80" height="166" as="geometry" />
        </mxCell>
        <mxCell id="5d52nSm6-lO-FbWmwKMX-16" value="&lt;u&gt;artworkID&lt;/u&gt;" style="text;strokeColor=none;fillColor=none;spacingLeft=4;spacingRight=4;overflow=hidden;rotatable=0;points=[[0,0.5],[1,0.5]];portConstraint=eastwest;fontSize=12;whiteSpace=wrap;html=1;align=left;verticalAlign=middle;" vertex="1" parent="5d52nSm6-lO-FbWmwKMX-15">
          <mxGeometry y="26" width="80" height="20" as="geometry" />
        </mxCell>
        <mxCell id="5d52nSm6-lO-FbWmwKMX-17" value="name" style="text;strokeColor=none;fillColor=none;spacingLeft=4;spacingRight=4;overflow=hidden;rotatable=0;points=[[0,0.5],[1,0.5]];portConstraint=eastwest;fontSize=12;whiteSpace=wrap;html=1;align=left;verticalAlign=middle;" vertex="1" parent="5d52nSm6-lO-FbWmwKMX-15">
          <mxGeometry y="46" width="80" height="20" as="geometry" />
        </mxCell>
        <mxCell id="5d52nSm6-lO-FbWmwKMX-18" value="medium" style="text;strokeColor=none;fillColor=none;spacingLeft=4;spacingRight=4;overflow=hidden;rotatable=0;points=[[0,0.5],[1,0.5]];portConstraint=eastwest;fontSize=12;whiteSpace=wrap;html=1;align=left;verticalAlign=middle;" vertex="1" parent="5d52nSm6-lO-FbWmwKMX-15">
          <mxGeometry y="66" width="80" height="20" as="geometry" />
        </mxCell>
        <mxCell id="5d52nSm6-lO-FbWmwKMX-19" value="width" style="text;strokeColor=none;fillColor=none;spacingLeft=4;spacingRight=4;overflow=hidden;rotatable=0;points=[[0,0.5],[1,0.5]];portConstraint=eastwest;fontSize=12;whiteSpace=wrap;html=1;align=left;verticalAlign=middle;" vertex="1" parent="5d52nSm6-lO-FbWmwKMX-15">
          <mxGeometry y="86" width="80" height="20" as="geometry" />
        </mxCell>
        <mxCell id="3O8WP1Vw1RuwNpBKoI2w-3" value="height" style="text;strokeColor=none;fillColor=none;spacingLeft=4;spacingRight=4;overflow=hidden;rotatable=0;points=[[0,0.5],[1,0.5]];portConstraint=eastwest;fontSize=12;whiteSpace=wrap;html=1;align=left;verticalAlign=middle;" vertex="1" parent="5d52nSm6-lO-FbWmwKMX-15">
          <mxGeometry y="106" width="80" height="20" as="geometry" />
        </mxCell>
        <mxCell id="3O8WP1Vw1RuwNpBKoI2w-2" value="depth" style="text;strokeColor=none;fillColor=none;spacingLeft=4;spacingRight=4;overflow=hidden;rotatable=0;points=[[0,0.5],[1,0.5]];portConstraint=eastwest;fontSize=12;whiteSpace=wrap;html=1;align=left;verticalAlign=middle;" vertex="1" parent="5d52nSm6-lO-FbWmwKMX-15">
          <mxGeometry y="126" width="80" height="20" as="geometry" />
        </mxCell>
        <mxCell id="3O8WP1Vw1RuwNpBKoI2w-4" value="weight" style="text;strokeColor=none;fillColor=none;spacingLeft=4;spacingRight=4;overflow=hidden;rotatable=0;points=[[0,0.5],[1,0.5]];portConstraint=eastwest;fontSize=12;whiteSpace=wrap;html=1;align=left;verticalAlign=middle;" vertex="1" parent="5d52nSm6-lO-FbWmwKMX-15">
          <mxGeometry y="146" width="80" height="20" as="geometry" />
        </mxCell>
        <mxCell id="5d52nSm6-lO-FbWmwKMX-20" value="" style="swimlane;fontStyle=0;childLayout=stackLayout;horizontal=1;startSize=26;horizontalStack=0;resizeParent=1;resizeParentMax=0;resizeLast=0;collapsible=1;marginBottom=0;align=center;fontSize=14;" vertex="1" parent="5d52nSm6-lO-FbWmwKMX-1">
          <mxGeometry x="420" y="328" width="120" height="166" as="geometry" />
        </mxCell>
        <mxCell id="5d52nSm6-lO-FbWmwKMX-21" style="text;strokeColor=none;fillColor=none;spacingLeft=4;spacingRight=4;overflow=hidden;rotatable=0;points=[[0,0.5],[1,0.5]];portConstraint=eastwest;fontSize=12;whiteSpace=wrap;html=1;align=left;verticalAlign=middle;" vertex="1" parent="5d52nSm6-lO-FbWmwKMX-20">
          <mxGeometry y="26" width="120" height="20" as="geometry" />
        </mxCell>
        <mxCell id="5d52nSm6-lO-FbWmwKMX-22" style="text;strokeColor=none;fillColor=none;spacingLeft=4;spacingRight=4;overflow=hidden;rotatable=0;points=[[0,0.5],[1,0.5]];portConstraint=eastwest;fontSize=12;whiteSpace=wrap;html=1;align=left;verticalAlign=middle;" vertex="1" parent="5d52nSm6-lO-FbWmwKMX-20">
          <mxGeometry y="46" width="120" height="20" as="geometry" />
        </mxCell>
        <mxCell id="5d52nSm6-lO-FbWmwKMX-23" style="text;strokeColor=none;fillColor=none;spacingLeft=4;spacingRight=4;overflow=hidden;rotatable=0;points=[[0,0.5],[1,0.5]];portConstraint=eastwest;fontSize=12;whiteSpace=wrap;html=1;align=left;verticalAlign=middle;" vertex="1" parent="5d52nSm6-lO-FbWmwKMX-20">
          <mxGeometry y="66" width="120" height="20" as="geometry" />
        </mxCell>
        <mxCell id="5d52nSm6-lO-FbWmwKMX-24" style="text;strokeColor=none;fillColor=none;spacingLeft=4;spacingRight=4;overflow=hidden;rotatable=0;points=[[0,0.5],[1,0.5]];portConstraint=eastwest;fontSize=12;whiteSpace=wrap;html=1;align=left;verticalAlign=middle;" vertex="1" parent="5d52nSm6-lO-FbWmwKMX-20">
          <mxGeometry y="86" width="120" height="20" as="geometry" />
        </mxCell>
        <mxCell id="3O8WP1Vw1RuwNpBKoI2w-7" style="text;strokeColor=none;fillColor=none;spacingLeft=4;spacingRight=4;overflow=hidden;rotatable=0;points=[[0,0.5],[1,0.5]];portConstraint=eastwest;fontSize=12;whiteSpace=wrap;html=1;align=left;verticalAlign=middle;" vertex="1" parent="5d52nSm6-lO-FbWmwKMX-20">
          <mxGeometry y="106" width="120" height="20" as="geometry" />
        </mxCell>
        <mxCell id="3O8WP1Vw1RuwNpBKoI2w-6" style="text;strokeColor=none;fillColor=none;spacingLeft=4;spacingRight=4;overflow=hidden;rotatable=0;points=[[0,0.5],[1,0.5]];portConstraint=eastwest;fontSize=12;whiteSpace=wrap;html=1;align=left;verticalAlign=middle;" vertex="1" parent="5d52nSm6-lO-FbWmwKMX-20">
          <mxGeometry y="126" width="120" height="20" as="geometry" />
        </mxCell>
        <mxCell id="3O8WP1Vw1RuwNpBKoI2w-8" style="text;strokeColor=none;fillColor=none;spacingLeft=4;spacingRight=4;overflow=hidden;rotatable=0;points=[[0,0.5],[1,0.5]];portConstraint=eastwest;fontSize=12;whiteSpace=wrap;html=1;align=left;verticalAlign=middle;" vertex="1" parent="5d52nSm6-lO-FbWmwKMX-20">
          <mxGeometry y="146" width="120" height="20" as="geometry" />
        </mxCell>
        <mxCell id="5d52nSm6-lO-FbWmwKMX-25" style="rounded=0;orthogonalLoop=1;jettySize=auto;html=1;exitX=1.006;exitY=0.565;exitDx=0;exitDy=0;endArrow=none;endFill=0;exitPerimeter=0;" edge="1" parent="5d52nSm6-lO-FbWmwKMX-1" source="5d52nSm6-lO-FbWmwKMX-12">
          <mxGeometry relative="1" as="geometry">
            <mxPoint x="320" y="385" as="sourcePoint" />
            <mxPoint x="420" y="385" as="targetPoint" />
          </mxGeometry>
        </mxCell>
        <mxCell id="5d52nSm6-lO-FbWmwKMX-26" style="edgeStyle=none;rounded=0;orthogonalLoop=1;jettySize=auto;html=1;exitX=0;exitY=0.25;exitDx=0;exitDy=0;endArrow=none;endFill=0;" edge="1" parent="5d52nSm6-lO-FbWmwKMX-1">
          <mxGeometry relative="1" as="geometry">
            <mxPoint x="400.0000000000001" y="385" as="targetPoint" />
            <mxPoint x="420" y="370" as="sourcePoint" />
          </mxGeometry>
        </mxCell>
        <mxCell id="5d52nSm6-lO-FbWmwKMX-27" style="edgeStyle=none;rounded=0;orthogonalLoop=1;jettySize=auto;html=1;exitX=0;exitY=0.75;exitDx=0;exitDy=0;endArrow=none;endFill=0;" edge="1" parent="5d52nSm6-lO-FbWmwKMX-1">
          <mxGeometry relative="1" as="geometry">
            <mxPoint x="400.0000000000001" y="385" as="targetPoint" />
            <mxPoint x="420" y="400" as="sourcePoint" />
          </mxGeometry>
        </mxCell>
        <mxCell id="5d52nSm6-lO-FbWmwKMX-28" style="rounded=0;orthogonalLoop=1;jettySize=auto;html=1;entryX=0;entryY=0.5;entryDx=0;entryDy=0;endArrow=none;endFill=0;" edge="1" parent="5d52nSm6-lO-FbWmwKMX-1">
          <mxGeometry relative="1" as="geometry">
            <mxPoint x="540" y="385" as="sourcePoint" />
            <mxPoint x="620" y="385" as="targetPoint" />
          </mxGeometry>
        </mxCell>
        <mxCell id="5d52nSm6-lO-FbWmwKMX-29" style="edgeStyle=none;rounded=0;orthogonalLoop=1;jettySize=auto;html=1;exitX=0;exitY=0.25;exitDx=0;exitDy=0;endArrow=none;endFill=0;" edge="1" parent="5d52nSm6-lO-FbWmwKMX-1">
          <mxGeometry relative="1" as="geometry">
            <mxPoint x="540.0000000000001" y="400" as="targetPoint" />
            <mxPoint x="560" y="385" as="sourcePoint" />
          </mxGeometry>
        </mxCell>
        <mxCell id="5d52nSm6-lO-FbWmwKMX-30" style="edgeStyle=none;rounded=0;orthogonalLoop=1;jettySize=auto;html=1;exitX=0;exitY=0.75;exitDx=0;exitDy=0;endArrow=none;endFill=0;" edge="1" parent="5d52nSm6-lO-FbWmwKMX-1">
          <mxGeometry relative="1" as="geometry">
            <mxPoint x="540.0000000000001" y="370" as="targetPoint" />
            <mxPoint x="560" y="385" as="sourcePoint" />
          </mxGeometry>
        </mxCell>
      </root>
    </mxGraphModel>
  </diagram>
  <diagram name="Movie" id="w0_3dLmzntPGoN7rrIIq">
    <mxGraphModel dx="1020" dy="504" grid="1" gridSize="10" guides="1" tooltips="1" connect="1" arrows="1" fold="1" page="1" pageScale="1" pageWidth="1169" pageHeight="827" math="0" shadow="0">
      <root>
        <mxCell id="cIOWt6NQjlE04bzsEktK-0" />
        <mxCell id="cIOWt6NQjlE04bzsEktK-1" parent="cIOWt6NQjlE04bzsEktK-0" />
        <mxCell id="cIOWt6NQjlE04bzsEktK-14" value="&lt;b&gt;Movie&lt;/b&gt;" style="swimlane;childLayout=stackLayout;horizontal=1;startSize=30;horizontalStack=0;rounded=1;fontSize=14;fontStyle=0;strokeWidth=2;resizeParent=0;resizeLast=1;shadow=0;dashed=0;align=center;arcSize=0;whiteSpace=wrap;html=1;" parent="cIOWt6NQjlE04bzsEktK-1" vertex="1">
          <mxGeometry x="440" y="280" width="120" height="130" as="geometry">
            <mxRectangle x="170" y="370" width="80" height="50" as="alternateBounds" />
          </mxGeometry>
        </mxCell>
        <mxCell id="cIOWt6NQjlE04bzsEktK-15" value="&lt;font style=&quot;font-size: 14px;&quot;&gt;&lt;u style=&quot;&quot;&gt;movieID&lt;br&gt;&lt;/u&gt;title&lt;br&gt;director&lt;br&gt;yearReleased&lt;br&gt;durationMins&lt;/font&gt;" style="align=left;strokeColor=none;fillColor=none;spacingLeft=4;fontSize=12;verticalAlign=top;resizable=0;rotatable=0;part=1;html=1;" parent="cIOWt6NQjlE04bzsEktK-14" vertex="1">
          <mxGeometry y="30" width="120" height="100" as="geometry" />
        </mxCell>
        <mxCell id="cIOWt6NQjlE04bzsEktK-16" style="edgeStyle=orthogonalEdgeStyle;rounded=0;orthogonalLoop=1;jettySize=auto;html=1;exitX=0.5;exitY=1;exitDx=0;exitDy=0;" parent="cIOWt6NQjlE04bzsEktK-14" source="cIOWt6NQjlE04bzsEktK-15" target="cIOWt6NQjlE04bzsEktK-15" edge="1">
          <mxGeometry relative="1" as="geometry" />
        </mxCell>
        <mxCell id="cIOWt6NQjlE04bzsEktK-17" value="&lt;b&gt;BoxOffice&lt;/b&gt;" style="swimlane;childLayout=stackLayout;horizontal=1;startSize=30;horizontalStack=0;rounded=1;fontSize=14;fontStyle=0;strokeWidth=2;resizeParent=0;resizeLast=1;shadow=0;dashed=0;align=center;arcSize=1;whiteSpace=wrap;html=1;" parent="cIOWt6NQjlE04bzsEktK-1" vertex="1">
          <mxGeometry x="640" y="280" width="120" height="130" as="geometry">
            <mxRectangle x="170" y="370" width="80" height="50" as="alternateBounds" />
          </mxGeometry>
        </mxCell>
        <mxCell id="cIOWt6NQjlE04bzsEktK-18" value="&lt;span style=&quot;font-size: 14px;&quot;&gt;&lt;u&gt;movieID&lt;/u&gt;*&lt;br&gt;rating&lt;br&gt;movieBudget&lt;br&gt;&lt;/span&gt;&lt;div&gt;&lt;span style=&quot;font-size: 14px;&quot;&gt;salesUS&lt;/span&gt;&lt;/div&gt;&lt;div&gt;&lt;span style=&quot;font-size: 14px;&quot;&gt;salesInternational&lt;/span&gt;&lt;/div&gt;" style="align=left;strokeColor=none;fillColor=none;spacingLeft=4;fontSize=12;verticalAlign=top;resizable=0;rotatable=0;part=1;html=1;" parent="cIOWt6NQjlE04bzsEktK-17" vertex="1">
          <mxGeometry y="30" width="120" height="100" as="geometry" />
        </mxCell>
        <mxCell id="cIOWt6NQjlE04bzsEktK-19" style="rounded=0;orthogonalLoop=1;jettySize=auto;html=1;exitX=1;exitY=0.5;exitDx=0;exitDy=0;entryX=0;entryY=0.5;entryDx=0;entryDy=0;endArrow=none;endFill=0;" parent="cIOWt6NQjlE04bzsEktK-1" edge="1">
          <mxGeometry relative="1" as="geometry">
            <mxPoint x="560" y="360" as="sourcePoint" />
            <mxPoint x="640" y="360" as="targetPoint" />
          </mxGeometry>
        </mxCell>
      </root>
    </mxGraphModel>
  </diagram>
  <diagram name="Country" id="_q1bzY86QsKVrQQN797x">
    <mxGraphModel dx="882" dy="677" grid="1" gridSize="10" guides="1" tooltips="1" connect="1" arrows="1" fold="1" page="1" pageScale="1" pageWidth="1169" pageHeight="827" math="0" shadow="0">
      <root>
        <mxCell id="eL8pvQOSEaFpysrVWFSy-0" />
        <mxCell id="eL8pvQOSEaFpysrVWFSy-1" parent="eL8pvQOSEaFpysrVWFSy-0" />
        <mxCell id="eL8pvQOSEaFpysrVWFSy-2" value="&lt;b&gt;Country&lt;/b&gt;" style="swimlane;childLayout=stackLayout;horizontal=1;startSize=30;horizontalStack=0;rounded=1;fontSize=14;fontStyle=0;strokeWidth=2;resizeParent=0;resizeLast=1;shadow=0;dashed=0;align=center;arcSize=0;whiteSpace=wrap;html=1;" parent="eL8pvQOSEaFpysrVWFSy-1" vertex="1">
          <mxGeometry x="440" y="280" width="120" height="130" as="geometry">
            <mxRectangle x="170" y="370" width="80" height="50" as="alternateBounds" />
          </mxGeometry>
        </mxCell>
        <mxCell id="eL8pvQOSEaFpysrVWFSy-3" value="&lt;font style=&quot;font-size: 14px;&quot;&gt;name&lt;/font&gt;&lt;div&gt;&lt;font style=&quot;font-size: 14px;&quot;&gt;&lt;u style=&quot;&quot;&gt;code&lt;br&gt;&lt;/u&gt;capital&lt;br&gt;area&lt;br&gt;population&lt;/font&gt;&lt;/div&gt;" style="align=left;strokeColor=none;fillColor=none;spacingLeft=4;fontSize=12;verticalAlign=top;resizable=0;rotatable=0;part=1;html=1;" parent="eL8pvQOSEaFpysrVWFSy-2" vertex="1">
          <mxGeometry y="30" width="120" height="100" as="geometry" />
        </mxCell>
        <mxCell id="eL8pvQOSEaFpysrVWFSy-4" style="edgeStyle=orthogonalEdgeStyle;rounded=0;orthogonalLoop=1;jettySize=auto;html=1;exitX=0.5;exitY=1;exitDx=0;exitDy=0;" parent="eL8pvQOSEaFpysrVWFSy-2" source="eL8pvQOSEaFpysrVWFSy-3" target="eL8pvQOSEaFpysrVWFSy-3" edge="1">
          <mxGeometry relative="1" as="geometry" />
        </mxCell>
        <mxCell id="eL8pvQOSEaFpysrVWFSy-5" value="&lt;b&gt;City&lt;/b&gt;" style="swimlane;childLayout=stackLayout;horizontal=1;startSize=30;horizontalStack=0;rounded=1;fontSize=14;fontStyle=0;strokeWidth=2;resizeParent=0;resizeLast=1;shadow=0;dashed=0;align=center;arcSize=1;whiteSpace=wrap;html=1;" parent="eL8pvQOSEaFpysrVWFSy-1" vertex="1">
          <mxGeometry x="640" y="280" width="120" height="150" as="geometry">
            <mxRectangle x="170" y="370" width="80" height="50" as="alternateBounds" />
          </mxGeometry>
        </mxCell>
        <mxCell id="eL8pvQOSEaFpysrVWFSy-6" value="&lt;span style=&quot;font-size: 14px;&quot;&gt;&lt;u&gt;cityID&lt;/u&gt;&lt;/span&gt;&lt;div&gt;&lt;span style=&quot;font-size: 14px;&quot;&gt;name&lt;br&gt;countryCode*&lt;br&gt;&lt;/span&gt;&lt;div&gt;&lt;span style=&quot;font-size: 14px;&quot;&gt;population&lt;/span&gt;&lt;/div&gt;&lt;div&gt;&lt;span style=&quot;font-size: 14px;&quot;&gt;longitude&lt;/span&gt;&lt;/div&gt;&lt;/div&gt;&lt;div&gt;&lt;span style=&quot;font-size: 14px;&quot;&gt;latitude&lt;/span&gt;&lt;/div&gt;" style="align=left;strokeColor=none;fillColor=none;spacingLeft=4;fontSize=12;verticalAlign=top;resizable=0;rotatable=0;part=1;html=1;" parent="eL8pvQOSEaFpysrVWFSy-5" vertex="1">
          <mxGeometry y="30" width="120" height="120" as="geometry" />
        </mxCell>
        <mxCell id="eL8pvQOSEaFpysrVWFSy-7" style="rounded=0;orthogonalLoop=1;jettySize=auto;html=1;exitX=1;exitY=0.5;exitDx=0;exitDy=0;entryX=0;entryY=0.5;entryDx=0;entryDy=0;endArrow=none;endFill=0;" parent="eL8pvQOSEaFpysrVWFSy-1" edge="1">
          <mxGeometry relative="1" as="geometry">
            <mxPoint x="560" y="360" as="sourcePoint" />
            <mxPoint x="640" y="360" as="targetPoint" />
          </mxGeometry>
        </mxCell>
        <mxCell id="qTnL5hPX8_aufUYDUaLF-1" value="" style="endArrow=none;html=1;rounded=0;" parent="eL8pvQOSEaFpysrVWFSy-1" edge="1">
          <mxGeometry width="50" height="50" relative="1" as="geometry">
            <mxPoint x="620" y="360" as="sourcePoint" />
            <mxPoint x="640" y="350" as="targetPoint" />
          </mxGeometry>
        </mxCell>
        <mxCell id="qTnL5hPX8_aufUYDUaLF-2" value="" style="endArrow=none;html=1;rounded=0;entryX=0;entryY=0.5;entryDx=0;entryDy=0;" parent="eL8pvQOSEaFpysrVWFSy-1" target="eL8pvQOSEaFpysrVWFSy-6" edge="1">
          <mxGeometry width="50" height="50" relative="1" as="geometry">
            <mxPoint x="620" y="360" as="sourcePoint" />
            <mxPoint x="650" y="360" as="targetPoint" />
          </mxGeometry>
        </mxCell>
      </root>
    </mxGraphModel>
  </diagram>
</mxfile>
